<svg xmlns="http://www.w3.org/2000/svg" width="155" height="24.231" viewBox="0 0 155 24.231">
  <path id="Path_5" data-name="Path 5" d="M16.57-13.022h5.343c-.559-5.359-4.551-8.419-9.941-8.419-6,0-10.624,4.132-10.624,11.556,0,7.394,4.536,11.556,10.624,11.556s9.521-4.132,9.941-8.139L16.57-6.5a4.2,4.2,0,0,1-4.5,3.51c-3.231,0-5.312-2.361-5.312-6.9,0-4.38,2.035-6.912,5.343-6.9A4.143,4.143,0,0,1,16.57-13.022ZM29.1,1.362l1.522-4.815h7.828l1.522,4.815h5.685L38.051-21.13H31.03L23.388,1.362Zm2.8-8.854,2.547-8.077h.186l2.547,8.077ZM48.054,1.362h5.281v-9.1h8.978v-4.318H53.335v-4.753h9.972V-21.13H48.054Zm17.987,0H81.636V-2.956H71.322V-7.74H80.8v-4.318H71.322v-4.753H81.6V-21.13H66.041Zm34.3,0c6.865,0,11.09-4.225,11.09-11.246,0-7.036-4.225-11.246-11.09-11.246H92.1V1.362ZM97.386-3.174V-16.625h2.7c3.914.016,6.027,1.848,6.027,6.741,0,4.877-2.112,6.726-5.965,6.71Zm17.179,4.536H130.16V-2.956H119.846V-7.74h9.475v-4.318h-9.475v-4.753h10.283V-21.13H114.565Zm18.95,0H148.24V-2.956H138.8V-21.13h-5.281Zm17.459,0h5.25V-15.507h-5.25Zm-.062-21.4a2.61,2.61,0,0,0,2.7,2.516,2.638,2.638,0,0,0,2.734-2.516,2.628,2.628,0,0,0-2.734-2.516A2.6,2.6,0,0,0,150.911-20.042Z" transform="translate(-1.348 22.559)"/>
</svg>
