<?xml version="1.0" encoding="utf-8"?>
<!-- Generator: Adobe Illustrator 24.1.1, SVG Export Plug-In . SVG Version: 6.00 Build 0)  -->
<svg version="1.1" id="레이어_1" xmlns="http://www.w3.org/2000/svg" xmlns:xlink="http://www.w3.org/1999/xlink" x="0px"
	 y="0px" viewBox="0 0 29 52" style="enable-background:new 0 0 29 52; fill: #000;" width="29px" height="52px" xml:space="preserve">
<style type="text/css">
	.st0{fill-rule:evenodd;clip-rule:evenodd; fill: #fff;}
</style>
<path class="st0" d="M0.2,26c0-0.9,0.4-1.9,1-2.5l21.6-22c1.3-1.4,3.6-1.4,4.9-0.1c0,0,0,0,0.1,0.1c1.4,1.4,1.4,3.7,0,5.1L8.7,26
	l19.1,19.4c1.4,1.4,1.4,3.7,0,5.1c-1.3,1.4-3.6,1.4-4.9,0.1c0,0,0,0-0.1-0.1l-21.6-22C0.5,27.9,0.2,26.9,0.2,26L0.2,26z"/>
</svg>
