<svg xmlns="http://www.w3.org/2000/svg" width="51" height="48" viewBox="0 0 51 48">
  <defs>
    <style>
      .cls-1 {
        fill-rule: evenodd;
      }
    </style>
  </defs>
  <path class="cls-1" d="M49.364,11.831L26.279,0.3a0.827,0.827,0,0,0-.738,0L2.457,11.831A0.824,0.824,0,0,0,2,12.568V35.624a0.822,0.822,0,0,0,.456.741L25.542,47.893a0.827,0.827,0,0,0,.738,0L49.364,36.365a0.822,0.822,0,0,0,.456-0.741V12.568a0.825,0.825,0,0,0-.456-0.737h0ZM25.91,23.176l-6.445-3.218,20.6-10.93,7.09,3.541ZM12.87,16.664l20.6-10.93,4.781,2.388-20.6,10.931Zm-0.975,1.354,4.947,2.47v6.561l-1.89-1.888a0.826,0.826,0,0,0-.583-0.241H11.895v-6.9ZM25.91,1.961l5.748,2.868-20.6,10.931L4.669,12.568ZM3.65,13.9l6.6,3.294v8.549a0.824,0.824,0,0,0,.824.823h2.956l3.056,3.053a0.824,0.824,0,0,0,1.407-.582V21.311l6.6,3.294V45.82L3.65,35.115V13.9ZM26.735,45.82V24.6L48.17,13.9V35.115Zm0,0"/>
</svg>
