<svg xmlns="http://www.w3.org/2000/svg" width="51" height="48" viewBox="0 0 51 48">
  <defs>
    <style>
      .cls-1 {
        fill-rule: evenodd;
      }
    </style>
  </defs>
  <path class="cls-1" d="M45.06,0H5.951A5.791,5.791,0,0,0,0,5.6V32.807a5.791,5.791,0,0,0,5.951,5.6H17a0.868,0.868,0,0,1,.68.321l7.141,8.962a0.883,0.883,0,0,0,1.361,0l7.141-8.962a0.869,0.869,0,0,1,.68-0.321H45.06a5.791,5.791,0,0,0,5.951-5.6V5.6A5.791,5.791,0,0,0,45.06,0h0Zm4.251,32.807a4.136,4.136,0,0,1-4.251,4H34.007a2.618,2.618,0,0,0-2.04.96l-6.461,8.108-6.462-8.108a2.621,2.621,0,0,0-2.04-.96H5.951a4.136,4.136,0,0,1-4.251-4V5.6a4.136,4.136,0,0,1,4.251-4H45.06a4.136,4.136,0,0,1,4.251,4V32.807Zm0,0M31.457,8.8a7.492,7.492,0,0,0-5.951,3.02A7.493,7.493,0,0,0,19.554,8.8c-3.878,0-6.8,3.145-6.8,7.316,0,4.489,3.617,7.568,9.1,12.229,0.969,0.824,2,1.7,3.081,2.647a0.89,0.89,0,0,0,1.158,0c1.081-.945,2.112-1.823,3.081-2.647,5.471-4.661,9.088-7.74,9.088-12.229,0-4.171-2.924-7.316-6.8-7.316h0ZM28.025,27.159c-0.8.681-1.642,1.4-2.519,2.16-0.878-.761-1.719-1.477-2.519-2.16-5.138-4.373-8.533-7.263-8.533-11.042,0-3.259,2.192-5.715,5.1-5.715a6.094,6.094,0,0,1,5.18,3.281,0.874,0.874,0,0,0,1.543,0A6.154,6.154,0,0,1,31.457,10.4c2.908,0,5.1,2.457,5.1,5.715,0,3.778-3.395,6.668-8.533,11.042h0Zm0,0"/>
</svg>
