<svg xmlns="http://www.w3.org/2000/svg" width="51" height="48" viewBox="0 0 51 48">
  <defs>
    <style>
      .cls-1 {
        fill-rule: evenodd;
      }
    </style>
  </defs>
  <path class="cls-1" d="M43.226,17.223a17.221,17.221,0,1,0-34.442,0C6.325,17.529,4,19.136,4,22.868v5.994C4,33.072,6.947,34.6,9.74,34.6h2.775a0.957,0.957,0,0,0,.957-0.957V18.122a0.957,0.957,0,0,0-.957-0.957H10.7a15.308,15.308,0,1,1,30.615,0H39.495a0.957,0.957,0,0,0-.957.957v15.5a0.957,0.957,0,0,0,.957.957h1.818c-0.268,6.573-3.425,8.114-9.73,8.391V42.324a1.914,1.914,0,0,0-1.913-1.914H23.651a1.914,1.914,0,0,0-1.913,1.914v3.109a1.914,1.914,0,0,0,1.913,1.914h6.037A1.914,1.914,0,0,0,31.6,45.434V44.879c6.066-.277,11.308-1.531,11.624-10.362,2.459-.306,4.784-1.914,4.784-5.645V22.877c0-3.751-2.315-5.349-4.784-5.655h0ZM11.558,32.66H9.692c-1.416,0-3.827-.5-3.827-3.827V22.839c0-3.3,2.382-3.828,3.827-3.828h1.866V32.66ZM23.651,45.444v-3.11h6.037v3.11H23.651ZM46.1,28.862c0,3.3-2.382,3.827-3.827,3.827H40.451V19.079h1.866c1.416,0,3.827.5,3.827,3.827Z"/>
</svg>
