<?xml version="1.0" encoding="utf-8"?>
<!-- Generator: Adobe Illustrator 24.1.1, SVG Export Plug-In . SVG Version: 6.00 Build 0)  -->
<svg version="1.1" id="레이어_1" xmlns="http://www.w3.org/2000/svg" xmlns:xlink="http://www.w3.org/1999/xlink" x="0px"
	 y="0px" viewBox="0 0 386 450" width="386px" height="450px" style="enable-background:new 0 0 386 450;" xml:space="preserve">
<g id="Layer_2">
	<path d="M369,81h-96V49c0-26.5-21.5-48-48-48h-64c-26.5,0-48,21.5-48,48v32H17C8.2,81,1,88.2,1,97s7.2,16,16,16h16v288
		c0,26.5,21.5,48,48,48h224c26.5,0,48-21.5,48-48V113h16c8.8,0,16-7.2,16-16S377.8,81,369,81z M145,49c0-8.8,7.2-16,16-16h64
		c8.8,0,16,7.2,16,16v32h-96V49z M321,401c0,8.8-7.2,16-16,16H81c-8.8,0-16-7.2-16-16V113h256V401z"/>
	<path d="M241,177c-8.8,0-16,7.2-16,16v144c0,8.8,7.2,16,16,16s16-7.2,16-16V193C257,184.2,249.8,177,241,177z"/>
	<path d="M145,177c-8.8,0-16,7.2-16,16v144c0,8.8,7.2,16,16,16s16-7.2,16-16V193C161,184.2,153.8,177,145,177z"/>
</g>
</svg>
