<svg id="hit" xmlns="http://www.w3.org/2000/svg" width="44" height="44" viewBox="0 0 44 44">
  <defs>
    <style>
      .cls-1 {
        fill-rule: evenodd;
      }
    </style>
  </defs>
  <path id="_4" data-name="4" class="cls-1" d="M42.383,11.984H10.694L8.137,1.833A1.436,1.436,0,0,0,6.764.655H1.409A1.468,1.468,0,0,0,0,2.174,1.467,1.467,0,0,0,1.409,3.694H5.642c0.22,1.03,5.727,29.214,5.938,30.2a1.437,1.437,0,0,0,1.373,1.178H38A1.436,1.436,0,0,0,39.376,33.9l4.381-20.052a1.5,1.5,0,0,0-1.373-1.86h0ZM20.986,41a2,2,0,1,1-2-2.01,2,2,0,0,1,2,2.01h0Zm0,0,12,0a2,2,0,1,1-2-2.01,2,2,0,0,1,2,2.01h0Zm0,0"/>
</svg>
