<svg id="기본" xmlns="http://www.w3.org/2000/svg" width="44" height="44" viewBox="0 0 44 44">
  <defs>
    <style>
      .cls-1 {
        fill-rule: evenodd;
      }
    </style>
  </defs>
  <path id="_5" data-name="5" class="cls-1" d="M22.464,43A21.464,21.464,0,1,1,43.929,21.536,21.489,21.489,0,0,1,22.464,43Zm0-39.795A18.331,18.331,0,1,0,40.8,21.535,18.352,18.352,0,0,0,22.464,3.2Zm7.311,21.464H21.42A1.566,1.566,0,0,1,19.853,23.1V12.135a1.567,1.567,0,1,1,3.133,0v9.4h6.789A1.567,1.567,0,1,1,29.776,24.669Z"/>
</svg>
