<svg id="기본" xmlns="http://www.w3.org/2000/svg" width="44" height="44" viewBox="0 0 44 44">
  <defs>
    <style>
      .cls-1 {
        fill-rule: evenodd;
      }
    </style>
  </defs>
  <path id="_3" data-name="3" class="cls-1" d="M43.507,19.826L38.891,15.66a1.66,1.66,0,0,0-.177-0.154L23.08,1.389a1.6,1.6,0,0,0-2.134,0L5.312,15.5a1.719,1.719,0,0,0-.177.155L0.519,19.826A1.515,1.515,0,0,0,.431,22a1.6,1.6,0,0,0,2.222.086L4.729,20.21V42.473A1.554,1.554,0,0,0,6.3,44.009H37.726A1.554,1.554,0,0,0,39.3,42.473V20.21l2.076,1.875a1.589,1.589,0,0,0,1.067.407,1.572,1.572,0,0,0,1.465-.976,1.515,1.515,0,0,0-.4-1.69h0ZM36.155,40.936H7.871V17.373L22.013,4.6,36.155,17.373V40.936Zm0,0M17.3,36.325a1.554,1.554,0,0,0,1.571,1.537h6.285a1.537,1.537,0,1,0,0-3.074H18.87A1.554,1.554,0,0,0,17.3,36.325h0Zm0,0"/>
</svg>
