<svg xmlns="http://www.w3.org/2000/svg" viewBox="0 0 44 44"><defs><style>.a{fill-rule:evenodd;}</style></defs><path d="M3.88,40.4a1.54,1.54,0,0,1-.56-.1A3.45,3.45,0,0,1,1,37a1.62,1.62,0,0,1,1.69-1.62A1.66,1.66,0,0,1,4.33,37a.15.15,0,0,0,.1.14,1.66,1.66,0,0,1-.55,3.22Zm0,0"/><path d="M2.67,38.66H2.61A1.65,1.65,0,0,1,1,37v-.13c0-.21,0-.42,0-.63A18.25,18.25,0,0,1,5,25.73,17.64,17.64,0,0,1,14.18,20c6-1.63,14.73-1.83,21.28,2.5A17.86,17.86,0,0,1,43,37a1.66,1.66,0,0,1-1.67,1.65h0A1.66,1.66,0,0,1,39.65,37a14.46,14.46,0,0,0-6.09-11.75c-4.58-3-11.86-3.85-18.5-2a14.08,14.08,0,0,0-7.44,4.6,15,15,0,0,0-3.27,8.59c0,.17,0,.34,0,.52v.13a1.66,1.66,0,0,1-1.66,1.6Zm0,0"/><path d="M22,44a47.35,47.35,0,0,1-15.7-2.67l-3-1a1.65,1.65,0,0,1-1-2.11,1.68,1.68,0,0,1,2.13-1l3,1a44.14,44.14,0,0,0,29.19,0l3-1a1.68,1.68,0,0,1,2.13,1,1.65,1.65,0,0,1-1,2.11l-3,1A47.45,47.45,0,0,1,22,44Zm0,0"/><path d="M40.11,40.4a1.66,1.66,0,0,1-.56-3.22.14.14,0,0,0,.1-.14,1.66,1.66,0,0,1,1.64-1.68h0A1.66,1.66,0,0,1,43,37a3.46,3.46,0,0,1-2.33,3.32,1.52,1.52,0,0,1-.55.1Zm0,0"/><path d="M22,22.35a10.88,10.88,0,0,1-9.25-5.13,10.78,10.78,0,0,1,.9-12.34A10.94,10.94,0,0,1,22,1a10.67,10.67,0,0,1,2.12,21.13,10.81,10.81,0,0,1-2.12.21Zm0-18"/><path class="a" d="M3,37s.13-13.17,17-17c0,0,11.51-.17,18,7l3,10-3,2S19.38,46,3,37Z"/></svg>