<?xml version="1.0" encoding="utf-8"?>
<!-- Generator: Adobe Illustrator 24.1.1, SVG Export Plug-In . SVG Version: 6.00 Build 0)  -->
<svg version="1.1" id="레이어_1" xmlns="http://www.w3.org/2000/svg" xmlns:xlink="http://www.w3.org/1999/xlink" x="0px"
	 y="0px" viewBox="0 0 384 384" style="enable-background:new 0 0 384 384; fill: #333;" xml:space="preserve">
<path d="M308,207.7H16c-8.8,0-16-7.2-16-16s7.2-16,16-16h292c8.8,0,16,7.2,16,16S316.8,207.7,308,207.7z"/>
<path d="M368,82H16C7.2,82,0,74.8,0,66s7.2-16,16-16h352c8.8,0,16,7.2,16,16S376.8,82,368,82z"/>
<path d="M368,333.3H16c-8.8,0-16-7.2-16-16s7.2-16,16-16h352c8.8,0,16,7.2,16,16S376.8,333.3,368,333.3z"/>
</svg>
