<svg clip-rule="evenodd" fill-rule="evenodd" height="512" stroke-linejoin="round" stroke-miterlimit="2" viewBox="0 0 32 32" width="512" xmlns="http://www.w3.org/2000/svg"><g transform="translate(-32 -288)"><g id="Icon"><g transform="translate(7)"><path d="m41 289c-4.415 0-8 3.585-8 8s3.585 8 8 8 8-3.585 8-8-3.585-8-8-8zm0 2c3.311 0 6 2.689 6 6s-2.689 6-6 6-6-2.689-6-6 2.689-6 6-6z"/></g><path d="m63 315.49c0-1.355-.549-2.652-1.523-3.595-.002-.001-.003-.003-.005-.005-1.954-1.864-6.208-4.89-13.472-4.89-7.266 0-11.52 3.027-13.469 4.896-.001.001-.003.002-.004.004-.97.938-1.519 2.23-1.522 3.58-.005.166-.005.343-.005.52 0 .796.316 1.559.879 2.121.562.563 1.325.879 2.121.879h24c.796 0 1.559-.316 2.121-.879.563-.562.879-1.325.879-2.121zm-2-.001v.511c0 .265-.105.52-.293.707-.187.188-.442.293-.707.293h-24c-.265 0-.52-.105-.707-.293-.188-.187-.293-.442-.293-.707l.005-.51c0-.811.329-1.588.912-2.152 1.748-1.675 5.576-4.338 12.083-4.338s10.335 2.663 12.088 4.334c.583.566.912 1.343.912 2.155z"/></g></g></svg>