<svg clip-rule="evenodd" fill-rule="evenodd" height="512" stroke-linejoin="round" stroke-miterlimit="2" viewBox="0 0 32 32" width="512" xmlns="http://www.w3.org/2000/svg"><g transform="translate(-96 -288)"><g id="Icon"><path d="m108 313c-1.656 0-3 1.344-3 3s1.344 3 3 3 3-1.344 3-3-1.344-3-3-3zm0 2c.552 0 1 .448 1 1s-.448 1-1 1-1-.448-1-1 .448-1 1-1z"/><g transform="translate(2)"><path d="m118 313c-1.656 0-3 1.344-3 3s1.344 3 3 3 3-1.344 3-3-1.344-3-3-3zm0 2c.552 0 1 .448 1 1s-.448 1-1 1-1-.448-1-1 .448-1 1-1z"/></g><path d="m100.292 291.836c.296 1.775 3.391 16.793 3.391 16.793.297 1.383 1.519 2.371 2.934 2.371h14.766c1.415 0 2.637-.988 2.934-2.371l2.142-10c.19-.886-.03-1.81-.6-2.515s-1.427-1.114-2.333-1.114h-20.679l-.582-3.493c-.241-1.447-1.493-2.507-2.959-2.507-.68 0-1.306 0-1.306 0-.552 0-1 .448-1 1s.448 1 1 1h1.306c.489 0 .906.353.986.836zm24.212 6.374-2.143 10c-.099.461-.506.79-.978.79-3.419 0-11.347 0-14.766 0-.472 0-.879-.329-.978-.79l-2.402-11.21h20.289c.302 0 .588.136.778.371s.263.543.2.839z"/></g></g></svg>