<svg fill="none" height="512" viewBox="0 0 24 24" width="512" xmlns="http://www.w3.org/2000/svg"><g clip-rule="evenodd" fill="rgb(0,0,0)" fill-rule="evenodd"><path d="m16 5c-.5523 0-1 .44772-1 1s.4477 1 1 1 1-.44772 1-1-.4477-1-1-1zm-3 1c0-1.65685 1.3431-3 3-3s3 1.34315 3 3-1.3431 3-3 3-3-1.34315-3-3z"/><path d="m8 11c-.55228 0-1 .4477-1 1s.44772 1 1 1 1-.4477 1-1-.44772-1-1-1zm-3 1c0-1.6569 1.34315-3 3-3s3 1.3431 3 3-1.34315 3-3 3-3-1.3431-3-3z"/><path d="m16 17c-.5523 0-1 .4477-1 1s.4477 1 1 1 1-.4477 1-1-.4477-1-1-1zm-3 1c0-1.6569 1.3431-3 3-3s3 1.3431 3 3-1.3431 3-3 3-3-1.3431-3-3z"/><path d="m3 6c0-.55228.44772-1 1-1h10c.5523 0 1 .44772 1 1s-.4477 1-1 1h-10c-.55228 0-1-.44772-1-1z"/><path d="m9 12c0-.5523.44772-1 1-1h10c.5523 0 1 .4477 1 1s-.4477 1-1 1h-10c-.55228 0-1-.4477-1-1z"/><path d="m3 12c0-.5523.44772-1 1-1h2c.55228 0 1 .4477 1 1s-.44772 1-1 1h-2c-.55228 0-1-.4477-1-1z"/><path d="m17 6c0-.55228.4477-1 1-1h2c.5523 0 1 .44772 1 1s-.4477 1-1 1h-2c-.5523 0-1-.44772-1-1z"/><path d="m17 18c0-.5523.4477-1 1-1h2c.5523 0 1 .4477 1 1s-.4477 1-1 1h-2c-.5523 0-1-.4477-1-1z"/><path d="m3 18c0-.5523.44772-1 1-1h10c.5523 0 1 .4477 1 1s-.4477 1-1 1h-10c-.55228 0-1-.4477-1-1z"/></g></svg>