<svg xmlns="http://www.w3.org/2000/svg" width="27" height="24" viewBox="0 0 27 24">
  <defs>
    <style>
      .cls-1 {
        fill-rule: evenodd;
      }
    </style>
  </defs>
  <path class="cls-1" d="M23.555,9.236H22.674a9.664,9.664,0,0,0-19.294,0H2.5a2.5,2.5,0,0,0-2.5,2.5v4.247a2.5,2.5,0,0,0,2.5,2.5h0.94A5.765,5.765,0,0,0,9.122,23.3h1.393a1.236,1.236,0,0,0,1.111.7H14a1.237,1.237,0,0,0,1.237-1.235V21.992A1.237,1.237,0,0,0,14,20.756h-2.37a1.237,1.237,0,0,0-1.111.7H9.122a3.906,3.906,0,0,1-3.9-3.9V9.791a7.808,7.808,0,0,1,15.616,0v7.758a0.927,0.927,0,0,0,.927.926h1.793a2.5,2.5,0,0,0,2.5-2.5V11.732a2.5,2.5,0,0,0-2.5-2.5h0ZM3.364,16.622H2.5a0.644,0.644,0,0,1-.644-0.643V11.732A0.644,0.644,0,0,1,2.5,11.088H3.364v5.533ZM24.2,15.979a0.644,0.644,0,0,1-.644.643H22.689V11.088h0.865a0.644,0.644,0,0,1,.644.644v4.247Zm0,0"/>
</svg>
