<svg xmlns="http://www.w3.org/2000/svg" width="33" height="22" viewBox="0 0 33 22">
  <defs>
    <style>
      .cls-1 {
        fill-rule: evenodd;
      }
    </style>
  </defs>
  <path id="_3" data-name="3" class="cls-1" d="M0,17.094a1.656,1.656,0,0,0,1.681,1.631H4.447a4.175,4.175,0,0,0,4.119,3.262,4.175,4.175,0,0,0,4.12-3.262h9.46a4.232,4.232,0,0,0,8.239,0h2.59l0.017-8.156L26.242,4.051l-4.973,0H21.219V1.631A1.657,1.657,0,0,0,19.537,0H1.682A1.657,1.657,0,0,0,0,1.631V17.094Zm8.567,3.261a2.448,2.448,0,1,1,2.523-2.447A2.487,2.487,0,0,1,8.566,20.356Zm10.97-3.261h-6.85a4.175,4.175,0,0,0-4.12-3.262,4.175,4.175,0,0,0-4.119,3.262H1.681V1.631H19.537V17.094Zm6.729,3.261a2.448,2.448,0,1,1,2.523-2.447A2.488,2.488,0,0,1,26.265,20.356ZM31.3,17.094H30.386a4.232,4.232,0,0,0-8.239,0H21.218V5.678h0.048l4.281,0,5.763,5.566Z"/>
</svg>
