<svg xmlns="http://www.w3.org/2000/svg" width="33" height="22" viewBox="0 0 33 22">
  <defs>
    <style>
      .cls-1 {
        fill-rule: evenodd;
      }
    </style>
  </defs>
  <path id="_2" data-name="2" class="cls-1" d="M25.53,22a3.673,3.673,0,0,0,2.6-1.043,2.9,2.9,0,0,0,.852-2.432L26.83,2.759A3.364,3.364,0,0,0,23.378,0H9.626a3.364,3.364,0,0,0-3.451,2.76L4.023,18.525a2.9,2.9,0,0,0,.852,2.432A3.673,3.673,0,0,0,7.475,22H25.53ZM5.836,18.714L8,2.947a1.583,1.583,0,0,1,1.63-1.306H23.378a1.583,1.583,0,0,1,1.63,1.306l2.161,15.766a1.359,1.359,0,0,1-.412,1.15,1.691,1.691,0,0,1-1.227.493H7.475a1.691,1.691,0,0,1-1.227-.493,1.359,1.359,0,0,1-.412-1.15h0Zm0,0M16.5,9.856A5.24,5.24,0,0,0,22,4.927V4.106a0.921,0.921,0,0,0-1.831,0V4.927A3.493,3.493,0,0,1,16.5,8.213,3.493,3.493,0,0,1,12.84,4.927V4.106a0.921,0.921,0,0,0-1.831,0V4.927A5.24,5.24,0,0,0,16.5,9.856h0Zm0,0"/>
</svg>
