<svg xmlns="http://www.w3.org/2000/svg" viewBox="0 0 45 45" width="45px" height="45px"><path d="M13,22.29V15.62A2.45,2.45,0,0,1,15.6,13H27.43a2.83,2.83,0,0,1,1.87.65c.53.45,1.09.86,1.64,1.28A2.59,2.59,0,0,1,32,17.14c0,3,0,6.05,0,9.07a2.42,2.42,0,0,1-2.59,2.61c-2.44,0-4.87.05-7.3,0a5.44,5.44,0,0,0-4.6,2.08,10.14,10.14,0,0,1-.71.76,1.05,1.05,0,0,1-1.42.12,18.42,18.42,0,0,1-2-1.55A1.76,1.76,0,0,1,13,29.11C13,26.84,13,24.56,13,22.29Zm1,7.22.14,0c.31-.32.64-.62.93-1a6.31,6.31,0,0,1,5.25-2.25c2.38,0,4.76,0,7.14,0,1.16,0,1.68-.52,1.68-1.69v-9c0-1.24-.53-1.78-1.77-1.78H15.74c-1,0-1.81.38-1.79,1.75,0,4.43,0,8.86,0,13.29C14,29.14,14,29.33,14,29.51Z"/><path d="M17,20c0-.38,0-.76,0-1.14a1,1,0,0,1,1-1,1,1,0,0,1,1.11.87,18.58,18.58,0,0,1,0,2.69,1,1,0,0,1-1.15.89A1.06,1.06,0,0,1,17,21.18C17,20.78,17,20.38,17,20Z"/><path d="M26.08,20c0,.45,0,.9-.09,1.34a1,1,0,0,1-2.06-.17q0-1.2,0-2.4a1,1,0,0,1,.92-1,1.05,1.05,0,0,1,1.14.84,1.19,1.19,0,0,1,.05.26c0,.38,0,.76,0,1.14Z"/></svg>