<svg xmlns="http://www.w3.org/2000/svg" viewBox="0 0 45 45" width="45px" height="45px"><path d="M27.25,13h-9.5A4.71,4.71,0,0,0,13,17.75v9.5A4.71,4.71,0,0,0,17.75,32h9.5A4.71,4.71,0,0,0,32,27.25v-9.5A4.71,4.71,0,0,0,27.25,13ZM30.1,27.25a2.79,2.79,0,0,1-2.85,2.85h-9.5a2.79,2.79,0,0,1-2.85-2.85v-9.5a2.79,2.79,0,0,1,2.85-2.85h9.5a2.79,2.79,0,0,1,2.85,2.85Zm0,0"/><path d="M22.5,17.75a4.75,4.75,0,1,0,4.75,4.75,4.7,4.7,0,0,0-4.75-4.75Zm0,7.6a2.85,2.85,0,1,1,2.85-2.85,2.79,2.79,0,0,1-2.85,2.85Zm0,0"/><path d="M28.2,17.75a.95.95,0,1,1-.95-.95.95.95,0,0,1,.95.95Zm0,0"/></svg>