<svg xmlns="http://www.w3.org/2000/svg" viewBox="0 0 45 45" width="45px" height="45px"><path d="M22.5,12.57c-5.24,0-9.48,3.95-9.48,8.81a8.61,8.61,0,0,0,3.77,7v3.86a.13.13,0,0,0,.08.13l.07,0a.11.11,0,0,0,.08,0L20.42,30a10.12,10.12,0,0,0,2.08.21c5.24,0,9.48-3.94,9.48-8.81S27.74,12.57,22.5,12.57ZM19.67,23.74a2.2,2.2,0,0,0,2-1.46h1.43a3.6,3.6,0,0,1-3.48,2.88,3.71,3.71,0,0,1,0-7.41,3.6,3.6,0,0,1,3.48,2.88H21.72a2.2,2.2,0,0,0-2-1.46,2.29,2.29,0,0,0,0,4.57Zm9.23,1.42H27.57V21.89a1.19,1.19,0,0,0-.22-.81.87.87,0,0,0-.64-.22,1,1,0,0,0-.45.1,1,1,0,0,0-.37.28,1.33,1.33,0,0,0-.26.47,2,2,0,0,0-.1.63v2.82H24.2V17.6h1.34v2.86a2,2,0,0,1,.54-.4,1.87,1.87,0,0,1,.92-.22,1.84,1.84,0,0,1,1.42.52,2.28,2.28,0,0,1,.48,1.58Z"/></svg>