<?xml version="1.0" encoding="utf-8"?>
<!-- Generator: Adobe Illustrator 24.1.1, SVG Export Plug-In . SVG Version: 6.00 Build 0)  -->
<svg version="1.1" id="레이어_1" xmlns="http://www.w3.org/2000/svg" xmlns:xlink="http://www.w3.org/1999/xlink" x="0px"
	 y="0px" viewBox="0 0 440 440" width="440" height="440" style="enable-background:new 0 0 440 440; fill: #000;" xml:space="preserve">
<g id="Layer_2">
	<path d="M404.4,62.5C355.8,10.8,275.6,5.1,220.1,49.4C164.6,5.1,84.4,10.8,35.7,62.5c-49.9,55.8-47.1,141,6.4,193.3L197.3,411
		c12.5,12.5,32.8,12.5,45.2,0l155.2-155.2C451.3,203.5,454.3,118.4,404.4,62.5L404.4,62.5z M375.3,233.2L220.1,388.4L64.9,233.2
		c-41.4-40.1-44-105.6-5.8-148.8c19.3-20.6,46.2-32.5,74.4-32.8h1.6c27.7-0.1,54.2,10.9,73.7,30.5c6.2,6.2,16.4,6.2,22.6,0
		c40.7-40.7,106.8-40.7,147.5,0c0.8,0.8,1.5,1.5,2.3,2.3C419.3,127.6,416.7,193.2,375.3,233.2L375.3,233.2z"/>
</g>
</svg>
