<?xml version="1.0" encoding="utf-8"?>
<!-- Generator: Adobe Illustrator 24.1.1, SVG Export Plug-In . SVG Version: 6.00 Build 0)  -->
<svg version="1.1" id="레이어_1" xmlns="http://www.w3.org/2000/svg" xmlns:xlink="http://www.w3.org/1999/xlink" x="0px"
	 y="0px" viewBox="0 0 449 449" width="449" height="449" style="enable-background:new 0 0 449 449; fill: #000;" xml:space="preserve">
<g id="Layer_2">
	<path d="M368.7,288.7c-24.5,0.1-47.6,11.4-62.6,30.8l-148.5-74.1c4.1-13.5,4.1-27.8,0-41.3l148.5-74.1
		c27.4,34.3,77.5,39.9,111.8,12.4s39.9-77.5,12.4-111.8C403-3.8,352.9-9.3,318.6,18.1c-19,15.2-30,38.3-29.9,62.6
		c0.1,7,1.1,13.9,3,20.7l-148.5,74.1c-27.2-34.8-77.5-41-112.3-13.8s-41,77.5-13.8,112.3s77.5,41,112.3,13.8
		c5.2-4,9.8-8.7,13.8-13.8L291.8,348c-11.3,42.6,14.1,86.3,56.7,97.6s86.3-14.1,97.6-56.7s-14.1-86.3-56.7-97.6
		C382.6,289.6,375.7,288.7,368.7,288.7L368.7,288.7z M368.7,32.7c26.5,0,48,21.5,48,48s-21.5,48-48,48s-48-21.5-48-48
		S342.2,32.7,368.7,32.7z M80.7,272.7c-26.5,0-48-21.5-48-48s21.5-48,48-48s48,21.5,48,48S107.2,272.7,80.7,272.7z M368.7,416.7
		c-26.5,0-48-21.5-48-48s21.5-48,48-48s48,21.5,48,48S395.2,416.7,368.7,416.7z"/>
</g>
</svg>
