<svg fill="none" height="512" viewBox="0 0 24 24" width="512" xmlns="http://www.w3.org/2000/svg"><path clip-rule="evenodd" d="m16 18h4.5858c.781 0 1.4142-.6332 1.4142-1.4142 0-.3751-.149-.7348-.4142-1l-1-1c-.3751-.3751-.5858-.8838-.5858-1.4142v-3.20093c0-4.40208-3.5686-7.97067-7.9707-7.97067-4.41141 0-7.98387 3.58319-7.97063 7.9946l.00947 3.153c.00163.5446-.21886 1.0663-.61055 1.4446l-1.02895.9938c-.27393.2646-.42864.6291-.42864 1.0099 0 .7755.62863 1.4041 1.40408 1.4041h4.59592c0 2.2091 1.79086 4 4 4 2.2091 0 4-1.7909 4-4zm3.5251-2.3536.8536.8536h-16.73723l.8582-.8289c.68546-.6621 1.07132-1.575 1.06846-2.528l-.00946-3.153c-.01075-3.58123 2.8894-6.4901 6.47063-6.4901 3.5737 0 6.4707 2.89702 6.4707 6.47067v3.20093c0 .9282.3687 1.8185 1.0251 2.4748zm-5.0251 2.3536h-5c0 1.3807 1.1193 2.5 2.5 2.5s2.5-1.1193 2.5-2.5z" fill="rgb(0,0,0)" fill-rule="evenodd"/></svg>