<?xml version="1.0" encoding="utf-8"?>
<!-- Generator: Adobe Illustrator 24.1.1, SVG Export Plug-In . SVG Version: 6.00 Build 0)  -->
<svg version="1.1" id="레이어_1" xmlns="http://www.w3.org/2000/svg" xmlns:xlink="http://www.w3.org/1999/xlink" x="0px"
	 y="0px" viewBox="0 0 30 37.5" style="enable-background:new 0 0 30 37.5;" xml:space="preserve">
<style type="text/css">
	.st0{fill:#E10000;}
</style>
<path class="st0" d="M18.5,35c-0.7,1.9-2.8,3-4.8,2.3c-1.1-0.4-1.9-1.2-2.3-2.3H18.5z M28.3,26.5l-1.1-1.1c-0.6-0.7-0.9-1.5-1-2.3
	v-9.4c0-5.7-4.3-10.5-10-11.2V1.3C16.2,0.6,15.7,0,15,0s-1.3,0.6-1.3,1.3v1.3C8.1,3.2,3.8,8,3.7,13.8v9.4c-0.1,0.9-0.4,1.7-1,2.3
	l-1.1,1.1c-1,1.1-1.6,2.6-1.7,4.1v0.6c0,0.7,0.6,1.3,1.3,1.3h27.5c0.7,0,1.3-0.6,1.3-1.3v-0.6C29.9,29.1,29.3,27.7,28.3,26.5z"/>
</svg>
