<?xml version="1.0" encoding="utf-8"?>
<!-- Generator: Adobe Illustrator 24.1.1, SVG Export Plug-In . SVG Version: 6.00 Build 0)  -->
<svg version="1.1" id="레이어_1" xmlns="http://www.w3.org/2000/svg" xmlns:xlink="http://www.w3.org/1999/xlink" x="0px"
	 y="0px" viewBox="0 0 35 35" style="enable-background:new 0 0 35 35;" xml:space="preserve">
<style type="text/css">
	.st0{fill:#A7A7B4;}
</style>
<path class="st0" d="M20.8,32.7c-0.6,1.8-2.6,2.8-4.4,2.1c-1-0.4-1.8-1.1-2.1-2.1H20.8z M7,12.8v8.8c-0.1,0.8-0.4,1.6-0.9,2.2l-1,1
	c-1,1-1.5,2.4-1.6,3.8v0.6c0,0.6,0.5,1.2,1.2,1.2H25l-18-18C7,12.5,7,12.7,7,12.8z M34.7,33l-3.3-3.3c0.1-0.2,0.1-0.3,0.1-0.5v-0.6
	c-0.1-1.4-0.6-2.8-1.6-3.8l-1-1c-0.5-0.6-0.8-1.4-0.9-2.2v-8.8c0-5.3-4-9.8-9.3-10.4V1.2c0-0.6-0.6-1.2-1.2-1.1
	c-0.6,0-1.1,0.5-1.1,1.1v1.2c-3.1,0.4-5.9,2.1-7.6,4.7L2,0.3c-0.5-0.4-1.2-0.4-1.7,0c-0.4,0.5-0.4,1.2,0,1.6L33,34.7
	c0.5,0.4,1.2,0.4,1.7,0C35.1,34.2,35.1,33.5,34.7,33z"/>
</svg>
