<svg fill="none" height="512" viewBox="0 0 24 24" width="512" xmlns="http://www.w3.org/2000/svg"><g clip-rule="evenodd" fill="rgb(0,0,0)" fill-rule="evenodd"><path d="m12 14.5c1.3807 0 2.5-1.1193 2.5-2.5s-1.1193-2.5-2.5-2.5-2.5 1.1193-2.5 2.5 1.1193 2.5 2.5 2.5zm4-2.5c0 2.2091-1.7909 4-4 4-2.20914 0-4-1.7909-4-4 0-2.20914 1.79086-4 4-4 2.2091 0 4 1.79086 4 4z"/><path d="m10.9047 2.84189-.3875 1.16266c-.3268.98035-1.04391 1.67482-1.79508 2.09307-.06405.03567-.12747.07235-.19024.11003-.73866.44344-1.69997.71803-2.71359.51061l-1.20178-.24593c-.21085-.04315-.42565.05347-.53325.23985l-.62099 1.07557c-.1076.18638-.08387.42071.05892.58174l.81502.91911c.68405.7714.92901 1.7382.91536 2.5996-.00118.0745-.00118.1491 0 .2236.01364.8614-.23132 1.8281-.91536 2.5995l-.81502.9191c-.14279.1611-.16652.3954-.05891.5818l.62098 1.0756c.1076.1863.3224.2829.53325.2398l1.20169-.2459c1.01364-.2074 1.97496.0672 2.71363.5106.06278.0377.12622.0744.19029.1101.75117.4182 1.46828 1.1127 1.79508 2.0931l.3875 1.1626c.0681.2042.2591.3419.4744.3419h1.2419c.2152 0 .4063-.1377.4744-.3419l.3875-1.1626c.3268-.9804 1.0439-1.6749 1.795-2.0931.0641-.0357.1275-.0724.1903-.1101.7387-.4434 1.7-.718 2.7137-.5106l1.2016.2459c.2109.0431.4257-.0535.5333-.2398l.6209-1.0756c.1076-.1864.0839-.4207-.0589-.5818l-.8149-.919c-.6841-.7714-.9291-1.7382-.9154-2.5996.0012-.0745.0012-.1491 0-.2236-.0137-.8615.2313-1.8282.9154-2.59965l.8149-.91906c.1428-.16103.1665-.39535.0589-.58174l-.6209-1.07557c-.1076-.18638-.3224-.28299-.5333-.23985l-1.2017.24592c-1.0136.20742-1.975-.06717-2.7136-.5106-.0628-.03768-.1262-.07436-.1903-.11003-.7511-.41825-1.4682-1.11272-1.795-2.09307l-.3875-1.16266c-.0681-.20418-.2592-.34189-.4744-.34189h-1.2419c-.2153 0-.4063.13771-.4744.34189zm-1.81057.68832c-.18224.54673-.59822.97652-1.10173 1.25688-.07832.0436-.15585.08845-.23257.13451-.49469.29697-1.07555.44279-1.64082.32711l-1.20178-.24593c-.84338-.17258-1.70258.21387-2.13301.9594l-.62098 1.07557c-.43043.74553-.33551 1.68284.23564 2.32694l.81503.91911c.38191.4307.54697 1.0051.53785 1.5806-.00143.0904-.00143.1808 0 .2711.00911.5756-.15594 1.1499-.53785 1.5806l-.81503.9191c-.57115.6441-.66607 1.5815-.23564 2.327l.62098 1.0756c.43043.7455 1.28963 1.1319 2.13301.9593l1.20169-.2459c.56529-.1156 1.14615.0302 1.64085.3272.07674.046.15429.0909.23263.1345.50351.2804.91949.7102 1.10173 1.2569l.38756 1.1627c.27222.8166 1.03651 1.3675 1.89741 1.3675h1.2419c.8609 0 1.6252-.5509 1.8974-1.3675l.3875-1.1627c.1823-.5467.5983-.9765 1.1018-1.2569.0783-.0436.1558-.0885.2326-.1345.4947-.297 1.0755-.4428 1.6408-.3272l1.2017.2459c.8434.1726 1.7026-.2138 2.133-.9593l.621-1.0756c.4304-.7455.3355-1.6829-.2357-2.327l-.8149-.919c-.382-.4307-.547-1.0051-.5379-1.5806.0014-.0904.0014-.1808 0-.2712-.0091-.5756.1559-1.15.5379-1.5806l.8149-.91911c.5712-.6441.6661-1.58141.2357-2.32694l-.621-1.07557c-.4304-.74552-1.2896-1.13198-2.133-.95939l-1.2018.24591c-.5652.11568-1.1461-.03013-1.6408-.32711-.0767-.04605-.1542-.0909-.2325-.1345-.5035-.28036-.9195-.71015-1.1018-1.25688l-.3875-1.16267c-.2722-.81668-1.0365-1.36754-1.8974-1.36754h-1.2419c-.8609 0-1.62519.55086-1.89742 1.36754z"/></g></svg>