<?xml version="1.0" encoding="utf-8"?>
<!-- Generator: Adobe Illustrator 26.3.1, SVG Export Plug-In . SVG Version: 6.00 Build 0)  -->
<svg version="1.1" id="svg10654" xmlns:svg="http://www.w3.org/2000/svg"
	 xmlns="http://www.w3.org/2000/svg" xmlns:xlink="http://www.w3.org/1999/xlink" x="0px" y="0px" viewBox="0 0 193.4 300"
	 style="enable-background:new 0 0 193.4 300;" xml:space="preserve">
<g id="layer1" transform="translate(0 -290.65)">
	<path id="path9509" vector-effect="none" d="M170,290.7c-4.8,0.3-9.4,2.2-13,5.4L7.5,424.1c-9,7.7-10,21.1-2.4,30.1
		c0.7,0.9,1.5,1.7,2.4,2.4l149.5,127.9c8.3,8.3,21.8,8.3,30.2,0c8.3-8.3,8.3-21.8,0-30.2c-0.8-0.8-1.6-1.5-2.4-2.1L54.1,440.3
		l130.5-111.8c9.1-7.5,10.4-20.9,2.9-30C183.3,293.2,176.8,290.3,170,290.7L170,290.7z"/>
</g>
</svg>
