<?xml version="1.0" encoding="utf-8"?>
<!-- Generator: Adobe Illustrator 26.3.1, SVG Export Plug-In . SVG Version: 6.00 Build 0)  -->
<svg version="1.1" id="svg10654" xmlns:svg="http://www.w3.org/2000/svg"
	 xmlns="http://www.w3.org/2000/svg" xmlns:xlink="http://www.w3.org/1999/xlink" x="0px" y="0px" viewBox="0 0 193.4 300"
	 style="enable-background:new 0 0 193.4 300;" xml:space="preserve">
<style type="text/css">
	.st0{fill:#FFFFFF;}
</style>
<g id="layer1" transform="translate(0 -290.65)">
	<path id="path9429" vector-effect="none" class="st0" d="M22.7,290.7c-11.8-0.3-21.5,9.1-21.8,20.9c-0.1,6.5,2.7,12.8,7.8,16.9
		l130.5,111.8L8.7,552.1c-9.5,7-11.5,20.3-4.6,29.8c7,9.5,20.3,11.5,29.8,4.6c0.9-0.6,1.7-1.3,2.4-2.1l149.5-127.9
		c9-7.7,10-21.1,2.4-30.1c-0.7-0.9-1.5-1.7-2.4-2.4L36.4,296C32.6,292.7,27.8,290.8,22.7,290.7L22.7,290.7z"/>
</g>
</svg>
