<?xml version="1.0" encoding="utf-8"?>
<!-- Generator: Adobe Illustrator 24.1.1, SVG Export Plug-In . SVG Version: 6.00 Build 0)  -->
<svg version="1.1" id="레이어_1" xmlns="http://www.w3.org/2000/svg" xmlns:xlink="http://www.w3.org/1999/xlink" x="0px"
	 y="0px" viewBox="0 0 288 448" width="288" height="448" style="enable-background:new 0 0 288 448;" xml:space="preserve">
<g id="Layer_2">
	<path d="M184,448c-57.4-0.1-103.9-46.6-104-104V160c0-35.3,28.7-64,64-64s64,28.7,64,64v176c0,8.8-7.2,16-16,16s-16-7.2-16-16V160
		c0-17.7-14.3-32-32-32s-32,14.3-32,32v184c0,39.8,32.2,72,72,72s72-32.2,72-72V144c0-61.9-50.1-112-112-112S32,82.1,32,144v160
		c0,8.8-7.2,16-16,16s-16-7.2-16-16V144C0,64.5,64.5,0,144,0s144,64.5,144,144v200C287.9,401.4,241.4,447.9,184,448z"/>
</g>
</svg>
