<?xml version="1.0" encoding="utf-8"?>
<!-- Generator: Adobe Illustrator 24.1.1, SVG Export Plug-In . SVG Version: 6.00 Build 0)  -->
<svg version="1.1" id="레이어_1" xmlns="http://www.w3.org/2000/svg" xmlns:xlink="http://www.w3.org/1999/xlink" x="0px"
	 y="0px" viewBox="0 0 448 448" width="448" height="448" style="enable-background:new 0 0 448 448;" xml:space="preserve">
<g id="Layer_2">
	<path d="M400,0H48C21.5,0,0,21.5,0,48v352c0,26.5,21.5,48,48,48h352c26.5,0,48-21.5,48-48V48C448,21.5,426.5,0,400,0z M48,32h352
		c8.8,0,16,7.2,16,16v265.4l-63.5-63.5c-17.9-17.8-46.6-18.8-65.6-2.1l-44.8,39.3l-65.2-55.9c-19.1-16.2-47.4-15.1-65.2,2.5
		L32,313.4V48C32,39.2,39.2,32,48,32L48,32z M400,416H48c-8.8,0-16-7.2-16-16v-41.4l102.4-102.4c5.9-5.9,15.4-6.3,21.7-0.8
		L283,364.2c6.5,6,16.6,5.6,22.6-0.9c6-6.5,5.6-16.6-0.9-22.6c-0.3-0.3-0.6-0.5-0.9-0.8l-37-31.8l41.3-36.3
		c6.3-5.6,15.9-5.3,21.9,0.7l86.1,86.1V400C416,408.8,408.8,416,400,416L400,416z"/>
	<path d="M256,208c35.3,0,64-28.7,64-64s-28.7-64-64-64s-64,28.7-64,64S220.7,208,256,208z M256,112c17.7,0,32,14.3,32,32
		s-14.3,32-32,32s-32-14.3-32-32S238.3,112,256,112z"/>
</g>
</svg>
