<?xml version="1.0" encoding="utf-8"?>
<!-- Generator: Adobe Illustrator 24.1.1, SVG Export Plug-In . SVG Version: 6.00 Build 0)  -->
<svg version="1.1" id="레이어_1" xmlns="http://www.w3.org/2000/svg" xmlns:xlink="http://www.w3.org/1999/xlink" x="0px"
	 y="0px" viewBox="0 0 352 448" width="352" height="448" style="enable-background:new 0 0 352 448;" xml:space="preserve">
<g id="Layer_2">
	<path d="M304,160v-32C304,57.3,246.7,0,176,0S48,57.3,48,128v32c-26.5,0-48,21.5-48,48v192c0,26.5,21.5,48,48,48h256
		c26.5,0,48-21.5,48-48V208C352,181.5,330.5,160,304,160z M80,128c0-53,43-96,96-96s96,43,96,96v32H80V128z M320,400
		c0,8.8-7.2,16-16,16H48c-8.8,0-16-7.2-16-16V208c0-8.8,7.2-16,16-16h256c8.8,0,16,7.2,16,16V400z"/>
	<path d="M176,256c-17.6-0.1-32,14.2-32,31.8c0,11.5,6.1,22.1,16,27.8V336c0,8.8,7.2,16,16,16c8.8,0,16-7.2,16-16v-20.4
		c15.3-8.8,20.5-28.3,11.8-43.6C198.1,262.1,187.5,256,176,256z"/>
</g>
</svg>
