<svg xmlns="http://www.w3.org/2000/svg" width="24" height="24" viewBox="0 0 24 24">
    <g data-name="Group 128" transform="translate(74 346)">
        <path data-name="Path 93" d="m46.027 14.727 4.724-8.182.877.015 1.434.055 4.79 1.658 3.589-1.729a12 12 0 0 0-20.784-1.035v.008l.363 6.142z" transform="translate(-112.751 -346)" style="fill:#db4437"/>
        <path data-name="Path 94" d="m7.276 126.818-5.37-9.21a12 12 0 0 0 9.528 18.474l4.288-2.844 1-6.414z" transform="translate(-74 -458.091)" style="fill:#0f9d58"/>
        <path data-name="Path 95" d="M255.132 139.621h-10.691l4.724 8.182-5.292 9.258c.187.009.375.014.564.014a12 12 0 0 0 10.691-17.455z" transform="translate(-306.441 -479.076)" style="fill:#ffcd40"/>
        <circle data-name="Ellipse 1" cx="5.455" cy="5.455" r="5.455" transform="translate(-67.455 -339.455)" style="fill:#f1f1f1"/>
        <circle data-name="Ellipse 2" cx="4.364" cy="4.364" r="4.364" transform="translate(-66.364 -338.364)" style="fill:#4285f4"/>
    </g>
</svg>
