<svg xmlns="http://www.w3.org/2000/svg" width="24" height="24" viewBox="0 0 24 24">
    <defs>
        <linearGradient id="pa1x06nyva" y1=".5" x2="1" y2=".5" gradientUnits="objectBoundingBox">
            <stop offset="0" stop-color="#00376f"/>
            <stop offset="1" stop-color="#004e99"/>
        </linearGradient>
        <linearGradient id="coq5cfi6wb" x1=".205" y1=".263" x2=".787" y2=".774" gradientUnits="objectBoundingBox">
            <stop offset="0" stop-color="#00c2dd"/>
            <stop offset="1" stop-color="#00d34f"/>
        </linearGradient>
        <linearGradient id="nfugpx3b2c" x1=".419" y1=".052" x2=".672" y2=".99" gradientUnits="objectBoundingBox">
            <stop offset=".002" stop-color="#006393"/>
            <stop offset=".4" stop-color="#0086de"/>
            <stop offset="1" stop-color="#006393"/>
        </linearGradient>
    </defs>
    <path data-name="Path 98" d="M129.718 211.508a12.063 12.063 0 0 0 7.47-5.3.373.373 0 0 0-.491-.526 9.418 9.418 0 0 1-4.436 1.082c-4.524 0-8.2-3.048-8.277-6.832a3.07 3.07 0 0 1 1.853-2.882 7.948 7.948 0 0 0-1.968.719 7.786 7.786 0 0 0-3.275 6.757 8.217 8.217 0 0 0 4.253 6.513c1.341.661 3.072.561 4.871.469z" transform="translate(-114.945 -187.816)" style="fill:url(#pa1x06nyva)"/>
    <path data-name="Path 99" d="M15.7 15.63a7.763 7.763 0 0 0 2.651.459c3.691 0 6.684-2.513 6.684-5.613C25.034 4.33 19.279.057 13.194 0A12.05 12.05 0 0 0 1.035 11.889a7.894 7.894 0 0 1 7.589-5.105c4.012 0 6.817 2.372 7.278 4.165a2.991 2.991 0 0 1-.592 3.069.994.994 0 0 0 .39 1.612z" transform="translate(-1.034 -.001)" style="fill:url(#coq5cfi6wb)"/>
    <path data-name="Path 100" d="M15.891 126.832a6.678 6.678 0 0 0-6.979-5.248c-7.664 0-7.888 6.189-7.888 6.189a12.063 12.063 0 0 0 14.773 11.8c-9.719.475-10.717-12.072-3.882-14.455a2.945 2.945 0 0 1 1.124-.235 3.011 3.011 0 0 1 2.852 1.949z" transform="translate(-1.024 -115.884)" style="fill:url(#nfugpx3b2c)"/>
</svg>
