<svg height="512" viewBox="0 0 20 20" width="512" xmlns="http://www.w3.org/2000/svg"><g id="Layer_2" fill="rgb(0,0,0)" data-name="Layer 2"><path d="m16.364 3.636a9 9 0 0 0 -12.728 12.728 9 9 0 0 0 12.728-12.728zm-1.414 11.314a7 7 0 1 1 2.05-4.95 6.956 6.956 0 0 1 -2.05 4.95z"/><path d="m12.828 7.172a1 1 0 0 0 -1.414 0l-1.414 1.414-1.414-1.414a1 1 0 1 0 -1.414 1.414l1.414 1.414-1.414 1.414a1 1 0 1 0 1.414 1.414l1.414-1.414 1.414 1.414a1 1 0 0 0 1.414-1.414l-1.414-1.414 1.414-1.414a1 1 0 0 0 0-1.414z"/></g></svg>