<?xml version="1.0" encoding="utf-8"?>
<!-- Generator: Adobe Illustrator 24.1.1, SVG Export Plug-In . SVG Version: 6.00 Build 0)  -->
<svg version="1.1" id="레이어_1" xmlns="http://www.w3.org/2000/svg" xmlns:xlink="http://www.w3.org/1999/xlink" x="0px"
	 y="0px" viewBox="0 0 288.2 256.4" style="enable-background:new 0 0 288.2 256.4;" xml:space="preserve">
<g id="Layer_2">
	<path d="M249.6,128.2L148.9,228.9c-6.1,6.4-6,16.5,0.4,22.6c6.2,6,16,6,22.2,0l112-112c6.2-6.2,6.2-16.4,0-22.6l-112-112
		c-6.4-6.1-16.5-6-22.6,0.4c-6,6.2-6,16,0,22.2L249.6,128.2z"/>
	<path d="M105.6,128.2L4.9,228.9c-6.4,6.1-6.5,16.3-0.4,22.6c6.1,6.4,16.3,6.5,22.6,0.4c0.1-0.1,0.3-0.3,0.4-0.4l112-112
		c6.2-6.2,6.2-16.4,0-22.6l-112-112C21.4-1.5,11.2-1.6,4.9,4.5c-6.4,6.1-6.5,16.3-0.4,22.6c0.1,0.1,0.3,0.3,0.4,0.4L105.6,128.2z"/>
</g>
</svg>
