<svg xmlns="http://www.w3.org/2000/svg" width="9" height="2" viewBox="0 0 9 2">
    <path data-name="more (1)" d="M3 11a.983.983 0 0 1 .132-.5 1.033 1.033 0 0 1 .368-.36A.966.966 0 0 1 4 10a.936.936 0 0 1 .5.14.965.965 0 0 1 .36.36.936.936 0 0 1 .14.5.966.966 0 0 1-.14.5 1.033 1.033 0 0 1-.36.368A.983.983 0 0 1 4 12a1.014 1.014 0 0 1-.5-.132 1.109 1.109 0 0 1-.368-.368A1.015 1.015 0 0 1 3 11zm3.5 0a.983.983 0 0 1 .132-.5A1.033 1.033 0 0 1 7 10.14a.966.966 0 0 1 .5-.14.936.936 0 0 1 .5.14.965.965 0 0 1 .36.36.936.936 0 0 1 .14.5.966.966 0 0 1-.14.5 1.033 1.033 0 0 1-.36.368.983.983 0 0 1-.5.132 1.014 1.014 0 0 1-.5-.132 1.109 1.109 0 0 1-.368-.368A1.014 1.014 0 0 1 6.5 11zm3.5 0a.983.983 0 0 1 .132-.5 1.033 1.033 0 0 1 .368-.36.966.966 0 0 1 .5-.14.936.936 0 0 1 .5.14.965.965 0 0 1 .36.36.936.936 0 0 1 .14.5.966.966 0 0 1-.14.5 1.033 1.033 0 0 1-.36.368.983.983 0 0 1-.5.132 1.014 1.014 0 0 1-.5-.132 1.109 1.109 0 0 1-.368-.368A1.014 1.014 0 0 1 10 11z" transform="translate(-3 -10)" style="fill:#222"/>
</svg>
