<?xml version="1.0" encoding="utf-8"?>
<!-- Generator: Adobe Illustrator 24.1.1, SVG Export Plug-In . SVG Version: 6.00 Build 0)  -->
<svg version="1.1" id="레이어_1" xmlns="http://www.w3.org/2000/svg" xmlns:xlink="http://www.w3.org/1999/xlink" x="0px"
	 y="0px" viewBox="0 0 287.8 255.6" style="enable-background:new 0 0 287.8 255.6;" xml:space="preserve">
<g id="Layer_2">
	<path d="M38.6,127.8L139.3,27.1c6.1-6.4,6-16.5-0.4-22.6c-6.2-6-16-6-22.2,0l-112,112c-6.2,6.2-6.2,16.4,0,22.6l112,112
		c6.4,6.1,16.5,6,22.6-0.4c6-6.2,6-16,0-22.2L38.6,127.8z"/>
	<path d="M182.6,127.8L283.3,27.1c6.1-6.4,6-16.5-0.4-22.6c-6.2-6-16-6-22.2,0l-112,112c-6.2,6.2-6.2,16.4,0,22.6l112,112
		c6.4,6.1,16.5,6,22.6-0.4c6-6.2,6-16,0-22.2L182.6,127.8z"/>
</g>
</svg>
