<?xml version="1.0" encoding="utf-8"?>
<!-- Generator: Adobe Illustrator 24.1.1, SVG Export Plug-In . SVG Version: 6.00 Build 0)  -->
<svg version="1.1" id="레이어_1" xmlns="http://www.w3.org/2000/svg" xmlns:xlink="http://www.w3.org/1999/xlink" x="0px"
	 y="0px" viewBox="0 0 448 448" style="enable-background:new 0 0 448 448;" xml:space="preserve">
<g id="Layer_2">
	<path d="M400,32h-64V16c0-8.8-7.2-16-16-16s-16,7.2-16,16v16H144V16c0-8.8-7.2-16-16-16s-16,7.2-16,16v16H48C21.5,32,0,53.5,0,80
		v320c0,26.5,21.5,48,48,48h352c26.5,0,48-21.5,48-48V80C448,53.5,426.5,32,400,32z M48,64h64v16c0,8.8,7.2,16,16,16s16-7.2,16-16
		V64h160v16c0,8.8,7.2,16,16,16s16-7.2,16-16V64h64c8.8,0,16,7.2,16,16v80H32V80C32,71.2,39.2,64,48,64z M400,416H48
		c-8.8,0-16-7.2-16-16V192h384v208C416,408.8,408.8,416,400,416z"/>
</g>
</svg>
