<svg fill="none" height="512" viewBox="0 0 24 24" width="512" xmlns="http://www.w3.org/2000/svg"><g clip-rule="evenodd" fill="rgb(0,0,0)" fill-rule="evenodd"><path d="m8 4.5h-2c-.82843 0-1.5.67157-1.5 1.5v2c0 .82843.67157 1.5 1.5 1.5h2c.82843 0 1.5-.67157 1.5-1.5v-2c0-.82843-.67157-1.5-1.5-1.5zm-2-1.5c-1.65685 0-3 1.34315-3 3v2c0 1.65685 1.34315 3 3 3h2c1.65685 0 3-1.34315 3-3v-2c0-1.65685-1.34315-3-3-3z"/><path d="m8 14.5h-2c-.82843 0-1.5.6716-1.5 1.5v2c0 .8284.67157 1.5 1.5 1.5h2c.82843 0 1.5-.6716 1.5-1.5v-2c0-.8284-.67157-1.5-1.5-1.5zm-2-1.5c-1.65685 0-3 1.3431-3 3v2c0 1.6569 1.34315 3 3 3h2c1.65685 0 3-1.3431 3-3v-2c0-1.6569-1.34315-3-3-3z"/><path d="m18 4.5h-2c-.8284 0-1.5.67157-1.5 1.5v2c0 .82843.6716 1.5 1.5 1.5h2c.8284 0 1.5-.67157 1.5-1.5v-2c0-.82843-.6716-1.5-1.5-1.5zm-2-1.5c-1.6569 0-3 1.34315-3 3v2c0 1.65685 1.3431 3 3 3h2c1.6569 0 3-1.34315 3-3v-2c0-1.65685-1.3431-3-3-3z"/><path d="m18 14.5h-2c-.8284 0-1.5.6716-1.5 1.5v2c0 .8284.6716 1.5 1.5 1.5h2c.8284 0 1.5-.6716 1.5-1.5v-2c0-.8284-.6716-1.5-1.5-1.5zm-2-1.5c-1.6569 0-3 1.3431-3 3v2c0 1.6569 1.3431 3 3 3h2c1.6569 0 3-1.3431 3-3v-2c0-1.6569-1.3431-3-3-3z"/></g></svg>