<svg fill="none" height="512" viewBox="0 0 24 24" width="512" xmlns="http://www.w3.org/2000/svg"><g clip-rule="evenodd" fill="rgb(0,0,0)" fill-rule="evenodd"><path d="m12 10.5c1.933 0 3.5-1.567 3.5-3.5s-1.567-3.5-3.5-3.5-3.5 1.567-3.5 3.5 1.567 3.5 3.5 3.5zm0 1.5c2.7614 0 5-2.23858 5-5s-2.2386-5-5-5c-2.76142 0-5 2.23858-5 5s2.23858 5 5 5z"/><path d="m9 15.75c-2.34721 0-4.25 1.9028-4.25 4.25v1c0 .4142-.33579.75-.75.75s-.75-.3358-.75-.75v-1c0-3.1756 2.57436-5.75 5.75-5.75h6c3.1756 0 5.75 2.5744 5.75 5.75v1c0 .4142-.3358.75-.75.75s-.75-.3358-.75-.75v-1c0-2.3472-1.9028-4.25-4.25-4.25z"/></g></svg>