<svg fill="none" height="512" viewBox="0 0 24 24" width="512" xmlns="http://www.w3.org/2000/svg"><path clip-rule="evenodd" d="m17 7h1c1.6569 0 3 1.34315 3 3v8c0 1.6569-1.3431 3-3 3h-8c-1.65685 0-3-1.3431-3-3v-1h-1c-1.65685 0-3-1.3431-3-3v-8c0-1.65685 1.34315-3 3-3h8c1.6569 0 3 1.34315 3 3zm-3-2.5h-8c-.82843 0-1.5.67157-1.5 1.5v8c0 .8284.67157 1.5 1.5 1.5h1v-5.5c0-1.65685 1.34315-3 3-3h5.5v-1c0-.82843-.6716-1.5-1.5-1.5zm-5.5 5.5c0-.82843.67157-1.5 1.5-1.5h8c.8284 0 1.5.67157 1.5 1.5v8c0 .8284-.6716 1.5-1.5 1.5h-8c-.82843 0-1.5-.6716-1.5-1.5z" fill="rgb(0,0,0)" fill-rule="evenodd"/></svg>