<svg fill="none" height="512" viewBox="0 0 24 24" width="512" xmlns="http://www.w3.org/2000/svg"><g fill="rgb(0,0,0)"><path clip-rule="evenodd" d="m12 14.5c1.3807 0 2.5-1.1193 2.5-2.5s-1.1193-2.5-2.5-2.5-2.5 1.1193-2.5 2.5 1.1193 2.5 2.5 2.5zm4-2.5c0 2.2091-1.7909 4-4 4-2.20914 0-4-1.7909-4-4 0-2.20914 1.79086-4 4-4 2.2091 0 4 1.79086 4 4z" fill-rule="evenodd"/><path clip-rule="evenodd" d="m17 5.5c-.5682 0-1.0876-.321-1.3416-.82918l-.1709-.34164c-.254-.50818-.7734-.82918-1.3416-.82918h-4.2918c-.56816 0-1.08755.321-1.34164.82918l-.17082.34164c-.25409.50818-.77348.82918-1.34164.82918h-2c-.82843 0-1.5.67157-1.5 1.5v10c0 .8284.67157 1.5 1.5 1.5h14c.8284 0 1.5-.6716 1.5-1.5v-10c0-.82843-.6716-1.5-1.5-1.5zm0-1.5-.1708-.34164c-.5082-1.01635-1.547-1.65836-2.6833-1.65836h-4.2918c-1.13631 0-2.1751.64201-2.68328 1.65836l-.17082.34164h-2c-1.65685 0-3 1.34315-3 3v10c0 1.6569 1.34315 3 3 3h14c1.6569 0 3-1.3431 3-3v-10c0-1.65685-1.3431-3-3-3z" fill-rule="evenodd"/><path d="m19 8c0 .55228-.4477 1-1 1s-1-.44772-1-1 .4477-1 1-1 1 .44772 1 1z"/></g></svg>