<?xml version="1.0" encoding="utf-8"?>
<!-- Generator: Adobe Illustrator 26.5.2, SVG Export Plug-In . SVG Version: 6.00 Build 0)  -->
<svg version="1.1" id="Layer_1" xmlns="http://www.w3.org/2000/svg" xmlns:xlink="http://www.w3.org/1999/xlink" x="0px" y="0px"
	 viewBox="0 0 396.2 371.2" style="enable-background:new 0 0 396.2 371.2;" xml:space="preserve">
<style type="text/css">
	.st0{fill-rule:evenodd;clip-rule:evenodd;}
</style>
<path class="st0" d="M343.9,87.7c-27.1-27.1-71-27.1-98.1,0L125.1,208.3c-10.4,10.4-10.4,27.3,0,37.7c10.4,10.4,27.3,10.4,37.7,0
	l120.7-120.7c6.2-6.2,16.4-6.2,22.6,0c6.2,6.2,6.2,16.4,0,22.6L185.5,268.7c-22.9,22.9-60.1,22.9-83,0c-22.9-22.9-22.9-60.1,0-83
	L223.2,65c39.6-39.6,103.7-39.6,143.3,0c39.6,39.6,39.6,103.7,0,143.3L245.8,329c-56.2,56.2-147.4,56.2-203.6,0s-56.2-147.4,0-203.6
	L162.9,4.7c6.2-6.2,16.4-6.2,22.6,0s6.2,16.4,0,22.6L64.8,148c-43.7,43.7-43.7,114.7,0,158.4c43.7,43.7,114.7,43.7,158.4,0
	l120.7-120.7C371,158.6,371,114.7,343.9,87.7L343.9,87.7z"/>
</svg>
