<?xml version="1.0" encoding="utf-8"?>
<!-- Generator: Adobe Illustrator 24.1.1, SVG Export Plug-In . SVG Version: 6.00 Build 0)  -->
<svg version="1.1" id="레이어_1" xmlns="http://www.w3.org/2000/svg" xmlns:xlink="http://www.w3.org/1999/xlink" x="0px"
	 y="0px" viewBox="0 0 385 258" width="385" height="258" style="enable-background:new 0 0 385 258; fill: #000;" xml:space="preserve">
<g id="Layer_2">
	<path d="M5.2,140.5l112,112c6.4,6.1,16.5,6,22.6-0.4c6-6.2,6-16,0-22.2l-84.7-84.7h313.4c8.8,0,16-7.2,16-16c0-8.8-7.2-16-16-16
		H55.1l84.7-84.7c6.4-6.1,6.5-16.3,0.4-22.6c-6.1-6.4-16.3-6.5-22.6-0.4c-0.1,0.1-0.3,0.3-0.4,0.4l-112,112
		C-1.1,124.1-1.1,134.3,5.2,140.5L5.2,140.5z"/>
</g>
</svg>
