<?xml version="1.0" encoding="utf-8"?>
<!-- Generator: Adobe Illustrator 26.5.2, SVG Export Plug-In . SVG Version: 6.00 Build 0)  -->
<svg version="1.1" id="Layer_1" xmlns="http://www.w3.org/2000/svg" xmlns:xlink="http://www.w3.org/1999/xlink" x="0px" y="0px"
	 viewBox="0 0 256 256" style="enable-background:new 0 0 256 256;" xml:space="preserve">
<style type="text/css">
	.st0{fill-rule:evenodd;clip-rule:evenodd;}
</style>
<g>
	<path class="st0" d="M6.2,6.2c-8.3,8.3-8.3,21.8,0,30.2l213.3,213.3c8.3,8.3,21.8,8.3,30.2,0s8.3-21.8,0-30.2L36.4,6.2
		C28.1-2.1,14.6-2.1,6.2,6.2L6.2,6.2z"/>
	<path class="st0" d="M249.8,6.2c8.3,8.3,8.3,21.8,0,30.2L36.4,249.8c-8.3,8.3-21.8,8.3-30.2,0c-8.3-8.3-8.3-21.8,0-30.2L219.6,6.2
		C227.9-2.1,241.4-2.1,249.8,6.2L249.8,6.2z"/>
</g>
</svg>
