<?xml version="1.0" encoding="utf-8"?>
<!-- Generator: Adobe Illustrator 26.5.2, SVG Export Plug-In . SVG Version: 6.00 Build 0)  -->
<svg version="1.1" id="Layer_1" xmlns="http://www.w3.org/2000/svg" xmlns:xlink="http://www.w3.org/1999/xlink" x="0px" y="0px"
	 viewBox="0 0 341.3 341.3" style="enable-background:new 0 0 341.3 341.3;" xml:space="preserve">
<g>
	<path d="M21.3,341.3c-6.4,0-10.7-2.1-14.9-6.4c-8.5-8.5-8.5-21.3,0-29.9L305.1,6.4c8.5-8.5,21.3-8.5,29.9,0s8.5,21.3,0,29.9
		L36.3,334.9C32,339.2,27.7,341.3,21.3,341.3L21.3,341.3z"/>
</g>
<g>
	<path d="M320,341.3c-6.4,0-10.7-2.1-14.9-6.4L6.4,36.3c-8.5-8.5-8.5-21.3,0-29.9s21.3-8.5,29.9,0l298.7,298.7
		c8.5,8.5,8.5,21.3,0,29.9C330.7,339.2,326.4,341.3,320,341.3L320,341.3z"/>
</g>
</svg>
