<?xml version="1.0" encoding="utf-8"?>
<!-- Generator: Adobe Illustrator 26.5.2, SVG Export Plug-In . SVG Version: 6.00 Build 0)  -->
<svg version="1.1" id="Layer_1" xmlns="http://www.w3.org/2000/svg" xmlns:xlink="http://www.w3.org/1999/xlink" x="0px" y="0px"
	 viewBox="0 0 400 376" style="enable-background:new 0 0 400 376;" xml:space="preserve">
<g>
	<path d="M80.8,376h238.4c44.8,0,80.8-36,80.8-80.8V112c0-8.8-7.2-16-16-16h-72V48.8C312,21.6,290.4,0,263.2,0H136.8
		C109.6,0,88,21.6,88,48.8V96H16c-8.8,0-16,7.2-16,16v183.2C0,340,36,376,80.8,376L80.8,376z M120,48.8c0-9.6,7.2-16.8,16.8-16.8
		h126.4c9.6,0,16.8,7.2,16.8,16.8V96H120V48.8z M32,128h56v32c0,8.8,7.2,16,16,16s16-7.2,16-16v-32h160v32c0,8.8,7.2,16,16,16
		s16-7.2,16-16v-32h56v167.2c0,27.2-21.6,48.8-48.8,48.8H80.8C53.6,344,32,322.4,32,295.2L32,128z"/>
</g>
</svg>
