<?xml version="1.0" encoding="utf-8"?>
<!-- Generator: Adobe Illustrator 26.5.2, SVG Export Plug-In . SVG Version: 6.00 Build 0)  -->
<svg version="1.1" id="Layer_1" xmlns="http://www.w3.org/2000/svg" xmlns:xlink="http://www.w3.org/1999/xlink" x="0px" y="0px"
	 viewBox="0 0 416 416" style="enable-background:new 0 0 416 416;" xml:space="preserve">
<style type="text/css">
	.st0{fill-rule:evenodd;clip-rule:evenodd;}
</style>
<g>
	<path class="st0" d="M165.3,170.7c8.8,0,16,7.2,16,16v106.7c0,8.8-7.2,16-16,16c-8.8,0-16-7.2-16-16V186.7
		C149.3,177.8,156.5,170.7,165.3,170.7z"/>
	<path class="st0" d="M250.7,170.7c8.8,0,16,7.2,16,16v106.7c0,8.8-7.2,16-16,16s-16-7.2-16-16V186.7
		C234.7,177.8,241.8,170.7,250.7,170.7z"/>
	<path class="st0" d="M165.3,0c-32.4,0-58.7,26.3-58.7,58.7V64H16C7.2,64,0,71.2,0,80s7.2,16,16,16h26.7v261.3
		c0,32.4,26.3,58.7,58.7,58.7h213.3c32.4,0,58.7-26.3,58.7-58.7V96H400c8.8,0,16-7.2,16-16s-7.2-16-16-16h-90.7v-5.3
		c0-32.4-26.3-58.7-58.7-58.7H165.3z M277.3,64v-5.3c0-14.7-11.9-26.7-26.7-26.7h-85.3c-14.7,0-26.7,11.9-26.7,26.7V64H277.3z
		 M74.7,96v261.3c0,14.7,11.9,26.7,26.7,26.7h213.3c14.7,0,26.7-11.9,26.7-26.7V96H74.7z"/>
</g>
</svg>
