<?xml version="1.0" encoding="utf-8"?>
<!-- Generator: Adobe Illustrator 26.5.2, SVG Export Plug-In . SVG Version: 6.00 Build 0)  -->
<svg version="1.1" id="Layer_1" xmlns="http://www.w3.org/2000/svg" xmlns:xlink="http://www.w3.org/1999/xlink" x="0px" y="0px"
	 viewBox="0 0 426.7 421.3" style="enable-background:new 0 0 426.7 421.3;" xml:space="preserve">
<style type="text/css">
	.st0{fill-rule:evenodd;clip-rule:evenodd;}
</style>
<path class="st0" d="M106.7,0c8.8,0,16,7.2,16,16v21.3H304V16c0-8.8,7.2-16,16-16c8.8,0,16,7.2,16,16v21.3h26.7
	c35.3,0,64,28.7,64,64v256c0,35.3-28.7,64-64,64H64c-35.3,0-64-28.7-64-64v-256c0-35.3,28.7-64,64-64h26.7V16
	C90.7,7.2,97.8,0,106.7,0z M304,69.3v32c0,8.8,7.2,16,16,16c8.8,0,16-7.2,16-16v-32h26.7c17.7,0,32,14.3,32,32v69.3H32v-69.3
	c0-17.7,14.3-32,32-32h26.7v32c0,8.8,7.2,16,16,16s16-7.2,16-16v-32H304z M32,202.7v154.7c0,17.7,14.3,32,32,32h298.7
	c17.7,0,32-14.3,32-32V202.7H32z"/>
</svg>
