<?xml version="1.0" encoding="utf-8"?>
<!-- Generator: Adobe Illustrator 26.5.2, SVG Export Plug-In . SVG Version: 6.00 Build 0)  -->
<svg version="1.1" id="Layer_1" xmlns="http://www.w3.org/2000/svg" xmlns:xlink="http://www.w3.org/1999/xlink" x="0px" y="0px"
	 viewBox="0 0 426.7 384" style="enable-background:new 0 0 426.7 384;" xml:space="preserve">
<style type="text/css">
	.st0{fill-rule:evenodd;clip-rule:evenodd;}
</style>
<g>
	<path class="st0" d="M213.3,266.7c29.5,0,53.3-23.9,53.3-53.3S242.8,160,213.3,160S160,183.9,160,213.3S183.9,266.7,213.3,266.7z
		 M298.7,213.3c0,47.1-38.2,85.3-85.3,85.3c-47.1,0-85.3-38.2-85.3-85.3c0-47.1,38.2-85.3,85.3-85.3
		C260.5,128,298.7,166.2,298.7,213.3z"/>
	<path class="st0" d="M320,74.7c-12.1,0-23.2-6.8-28.6-17.7l-3.6-7.3C282.3,38.8,271.2,32,259.1,32h-91.6
		c-12.1,0-23.2,6.8-28.6,17.7l-3.6,7.3c-5.4,10.8-16.5,17.7-28.6,17.7H64c-17.7,0-32,14.3-32,32V320c0,17.7,14.3,32,32,32h298.7
		c17.7,0,32-14.3,32-32V106.7c0-17.7-14.3-32-32-32H320z M320,42.7l-3.6-7.3C305.5,13.7,283.4,0,259.1,0h-91.6
		c-24.2,0-46.4,13.7-57.2,35.4l-3.6,7.3H64c-35.3,0-64,28.7-64,64V320c0,35.3,28.7,64,64,64h298.7c35.3,0,64-28.7,64-64V106.7
		c0-35.3-28.7-64-64-64H320z"/>
	<path d="M362.7,128c0,11.8-9.6,21.3-21.3,21.3c-11.8,0-21.3-9.6-21.3-21.3s9.6-21.3,21.3-21.3C353.1,106.7,362.7,116.2,362.7,128z"
		/>
</g>
</svg>
