<?xml version="1.0" encoding="utf-8"?>
<!-- Generator: Adobe Illustrator 26.3.1, SVG Export Plug-In . SVG Version: 6.00 Build 0)  -->
<svg version="1.1" id="Capa_1" xmlns="http://www.w3.org/2000/svg" xmlns:xlink="http://www.w3.org/1999/xlink" x="0px" y="0px"
	 viewBox="0 0 512 512" style="enable-background:new 0 0 512 512;" xml:space="preserve">
<style type="text/css">
	.st0{fill:#e10000;}
</style>
<g>
	<g>
		<path class="st0" d="M409,142.7c-40.9-40.9-95.2-63.4-153-63.4h-31.7l50.9-51L246.8,0l-99.1,99.4l97.9,99.5l28.6-28.1l-50.6-51.4
			H256c97.2,0,176.3,79.1,176.3,176.3S353.2,471.9,256,471.9S79.7,392.9,79.7,295.7v-20l-40.1,0v20c0,57.8,22.5,112.1,63.4,153
			c40.9,40.9,95.2,63.4,153,63.4s112.1-22.5,153-63.4c40.9-40.9,63.4-95.2,63.4-153S449.8,183.6,409,142.7z"/>
	</g>
</g>
</svg>
