<?xml version="1.0" encoding="utf-8"?>
<!-- Generator: Adobe Illustrator 26.5.2, SVG Export Plug-In . SVG Version: 6.00 Build 0)  -->
<svg version="1.1" id="Layer_1" xmlns="http://www.w3.org/2000/svg" xmlns:xlink="http://www.w3.org/1999/xlink" x="0px" y="0px"
	 viewBox="0 0 469.4 426.7" style="enable-background:new 0 0 469.4 426.7;" xml:space="preserve">
<g>
	<path d="M426.7,239.8V384H448v42.7H21.3V384h21.3V239.8c-13.1-8.8-23.9-20.6-31.3-34.6C3.9,191.3,0,175.8,0,160
		c0-17.6,4.8-34.6,13.5-49.1L71.4,10.7c1.9-3.2,4.6-5.9,7.8-7.8C82.4,1,86.1,0,89.8,0h289.7c3.7,0,7.4,1,10.7,2.9s5.9,4.6,7.8,7.8
		l57.6,99.9c12.7,21.1,16.8,46.4,11.4,70.4C461.7,205.1,447.2,226.1,426.7,239.8L426.7,239.8z M384,255.4
		c-14.7,1.6-29.5-0.1-43.4-5.1c-13.9-5-26.4-13.2-36.6-23.9c-9,9.4-19.7,16.8-31.6,21.9c-11.9,5.1-24.7,7.7-37.7,7.7
		c-13,0-25.8-2.6-37.7-7.7c-11.9-5.1-22.7-12.5-31.6-21.9c-10.2,10.7-22.7,18.8-36.6,23.9c-13.9,5-28.7,6.8-43.4,5.1V384H384V255.4
		L384,255.4z M102.2,42.7l-51.9,89.9c-5,12.5-5.2,26.4-0.4,38.9C54.6,184,64,194.4,76,200.3s25.9,7.2,38.8,3.4
		c12.9-3.8,23.9-12.3,30.8-23.9c7.1-17.9,32.4-17.9,39.6,0c4,9.9,10.8,18.4,19.6,24.4c8.8,6,19.3,9.2,29.9,9.2s21.1-3.2,29.9-9.2
		c8.8-6,15.7-14.5,19.6-24.4c7.1-17.9,32.4-17.9,39.6,0c2.8,6.8,6.9,13,12.2,18.1s11.5,9.1,18.4,11.7c6.9,2.6,14.2,3.7,21.6,3.4
		c7.3-0.4,14.5-2.3,21.1-5.6c6.6-3.3,12.4-7.9,17.1-13.6c4.7-5.7,8.2-12.2,10.2-19.3c2-7.1,2.6-14.5,1.7-21.8
		c-1-7.3-3.4-14.3-7.2-20.6l-51.7-89.5L102.2,42.7L102.2,42.7z"/>
</g>
</svg>
