<?xml version="1.0" encoding="utf-8"?>
<!-- Generator: Adobe Illustrator 26.5.2, SVG Export Plug-In . SVG Version: 6.00 Build 0)  -->
<svg version="1.1" id="Layer_1" xmlns="http://www.w3.org/2000/svg" xmlns:xlink="http://www.w3.org/1999/xlink" x="0px" y="0px"
	 viewBox="0 0 426.8 426.8" style="enable-background:new 0 0 426.8 426.8;" xml:space="preserve">
<g id="Layer_31">
	<path d="M420.5,390.2l-115.2-115c23.4-29.8,36.1-66.6,36.1-104.5C341.3,76.4,264.9,0,170.7,0S0,76.4,0,170.7
		s76.4,170.7,170.7,170.7c37.9,0,74.7-12.7,104.5-36.1l115,115.2c8.3,8.4,21.8,8.4,30.2,0.1c0,0,0.1-0.1,0.1-0.1
		c8.4-8.3,8.4-21.8,0.1-30.2C420.6,390.3,420.5,390.2,420.5,390.2z M42.7,170.7c0-70.7,57.3-128,128-128c70.7,0,128,57.3,128,128
		c0,70.7-57.3,128-128,128h0C100,298.7,42.7,241.4,42.7,170.7L42.7,170.7z"/>
</g>
</svg>
