<svg fill="none" height="512" viewBox="0 0 24 24" width="512" xmlns="http://www.w3.org/2000/svg"><path clip-rule="evenodd" d="m14.5356 3.8076c1.1715-1.17157 3.071-1.17157 4.2426 0l1.4142 1.41422c1.1716 1.17157 1.1716 3.07107 0 4.24264l-10.3925 10.39254c-.1396.1396-.3174.2347-.51099.2734l-5.3033 1.0607c-.69972.1399-1.31664-.477-1.17669-1.1767l1.06066-5.3033c.03871-.1936.13387-.3714.27347-.511zm3.1819 1.06066 1.4143 1.41422c.5857.58578.5857 1.53553 0 2.12132l-1.5911 1.59102-3.5355-3.53553 1.591-1.59103c.5858-.58578 1.5356-.58578 2.1213 0zm-4.773 2.65169-7.63374 7.63375-.88389 4.4194 4.41942-.8838 7.63381-7.6338z" fill="rgb(0,0,0)" fill-rule="evenodd"/></svg>