<?xml version="1.0" encoding="utf-8"?>
<!-- Generator: Adobe Illustrator 24.1.1, SVG Export Plug-In . SVG Version: 6.00 Build 0)  -->
<svg version="1.1" id="그룹_2" xmlns="http://www.w3.org/2000/svg" xmlns:xlink="http://www.w3.org/1999/xlink" x="0px" y="0px"
	 viewBox="0 0 26 26" style="enable-background:new 0 0 26 26;" xml:space="preserve">
<style type="text/css">
	.st0{fill-rule:evenodd;clip-rule:evenodd;}
</style>
<path id="Forma_1" class="st0" d="M0.5,10.5L3,23.7C3.2,25,4.3,26,5.7,26h14.7c1.3,0,2.5-1,2.7-2.3l2.4-13.2H0.5z M8.5,16.4
	c0,0.4-0.3,0.7-0.7,0.7c-0.4,0-0.7-0.3-0.7-0.7v-2.1c0-0.4,0.3-0.7,0.7-0.7c0.4,0.1,0.7,0.4,0.7,0.8V16.4z M18.9,16.4
	c0,0.4-0.3,0.7-0.7,0.7c-0.4,0-0.7-0.3-0.7-0.7v-2.1c0-0.4,0.3-0.7,0.7-0.7c0.4,0,0.7,0.3,0.7,0.7C18.9,14.4,18.9,16.4,18.9,16.4z
	 M8.5,5.8c0-2.5,2-4.5,4.5-4.5s4.5,2,4.5,4.5v4h1.4v-4c0-3.3-2.7-5.9-6-5.8C9.7,0,7.2,2.6,7.1,5.8v4h1.4V5.8z"/>
</svg>
