<?xml version="1.0" encoding="utf-8"?>
<!-- Generator: Adobe Illustrator 24.1.1, SVG Export Plug-In . SVG Version: 6.00 Build 0)  -->
<svg version="1.1" id="레이어_1" xmlns="http://www.w3.org/2000/svg" xmlns:xlink="http://www.w3.org/1999/xlink" x="0px"
	 y="0px" viewBox="0 0 15 15" style="enable-background:new 0 0 15 15;" xml:space="preserve">
<style type="text/css">
	.st0{fill-rule:evenodd;clip-rule:evenodd; fill: #E10000;}
</style>
<path id="Shape_4_copy_2" class="st0" d="M7.5,13.5c-0.1,0-0.3-0.1-0.4-0.1L1.2,7.9c-1.5-1.3-1.6-3.5-0.3-5C1,2.8,1.1,2.7,1.2,2.6
	c1.6-1.4,4.1-1.4,5.7,0l0.6,0.6l0.6-0.6c1.6-1.4,4.1-1.4,5.7,0c1.5,1.3,1.6,3.5,0.3,5c-0.1,0.1-0.2,0.2-0.3,0.3l-5.9,5.5
	C7.8,13.4,7.6,13.5,7.5,13.5L7.5,13.5z"/>
</svg>
