<svg fill="none" height="512" viewBox="0 0 24 24" width="512" xmlns="http://www.w3.org/2000/svg"><g clip-rule="evenodd" fill="rgb(0,0,0)" fill-rule="evenodd"><path d="m21 6c0 2.20914-1.7909 4-4 4s-4-1.79086-4-4 1.7909-4 4-4 4 1.79086 4 4zm-4 2.5c1.3807 0 2.5-1.11929 2.5-2.5s-1.1193-2.5-2.5-2.5-2.5 1.11929-2.5 2.5 1.1193 2.5 2.5 2.5z"/><path d="m21 18c0 2.2091-1.7909 4-4 4s-4-1.7909-4-4 1.7909-4 4-4 4 1.7909 4 4zm-4 2.5c1.3807 0 2.5-1.1193 2.5-2.5s-1.1193-2.5-2.5-2.5-2.5 1.1193-2.5 2.5 1.1193 2.5 2.5 2.5z"/><path d="m9.9833 14.6646 3.2607 1.9565c.1756-.478.4398-.9133.7727-1.2857l-3.2607-1.9565c.1578-.4298.244-.8943.244-1.3789s-.0862-.9491-.244-1.3789l3.2607-1.95647c-.3329-.37248-.5971-.80768-.7727-1.28569l-3.26071 1.95643c-.73248-.81952-1.79764-1.33537-2.98329-1.33537-2.20914 0-4 1.79086-4 4 0 2.2091 1.79086 4 4 4 1.18565 0 2.25081-.5159 2.9833-1.3354zm-.4833-2.6646c0 1.3807-1.11929 2.5-2.5 2.5s-2.5-1.1193-2.5-2.5 1.11929-2.5 2.5-2.5 2.5 1.1193 2.5 2.5z"/></g></svg>