<svg fill="none" height="512" viewBox="0 0 24 24" width="512" xmlns="http://www.w3.org/2000/svg"><g clip-rule="evenodd" fill="rgb(0,0,0)" fill-rule="evenodd"><path d="m10 10.25c.4142 0 .75.3358.75.75v5c0 .4142-.3358.75-.75.75-.41421 0-.75-.3358-.75-.75v-5c0-.4142.33579-.75.75-.75z"/><path d="m14 10.25c.4142 0 .75.3358.75.75v5c0 .4142-.3358.75-.75.75s-.75-.3358-.75-.75v-5c0-.4142.3358-.75.75-.75z"/><path d="m10 2.25c-1.51878 0-2.75 1.23122-2.75 2.75v.25h-4.25c-.41421 0-.75.33579-.75.75s.33579.75.75.75h1.25v12.25c0 1.5188 1.23122 2.75 2.75 2.75h10c1.5188 0 2.75-1.2312 2.75-2.75v-12.25h1.25c.4142 0 .75-.33579.75-.75s-.3358-.75-.75-.75h-4.25v-.25c0-1.51878-1.2312-2.75-2.75-2.75zm5.25 3v-.25c0-.69036-.5596-1.25-1.25-1.25h-4c-.69036 0-1.25.55964-1.25 1.25v.25zm-9.5 1.5v12.25c0 .6904.55964 1.25 1.25 1.25h10c.6904 0 1.25-.5596 1.25-1.25v-12.25z"/></g></svg>