<?xml version="1.0" encoding="utf-8"?>
<!-- Generator: Adobe Illustrator 26.5.2, SVG Export Plug-In . SVG Version: 6.00 Build 0)  -->
<svg version="1.1" id="Layer_1" xmlns="http://www.w3.org/2000/svg" xmlns:xlink="http://www.w3.org/1999/xlink" x="0px" y="0px"
	 viewBox="0 0 512 512" style="enable-background:new 0 0 512 512;" xml:space="preserve">
<style type="text/css">
	.st0{fill-rule:evenodd;clip-rule:evenodd;fill:#FFFFFF;}
</style>
<g>
	<path class="st0" d="M48,85.3c0-8.8,7.2-16,16-16h9.4c26.9,0,50.4,18.3,56.9,44.4l4.9,19.6h259.7c37.5,0,65.4,34.8,57.3,71.4
		l-23.7,106.7c-6,26.8-29.8,45.9-57.3,45.9H204c-26.9,0-50.4-18.3-56.9-44.4L99.2,121.5c-3-11.9-13.6-20.2-25.9-20.2H64
		C55.2,101.3,48,94.2,48,85.3z M143.2,165.3l35,139.8c3,11.9,13.6,20.2,25.9,20.2h167.1c12.5,0,23.3-8.7,26-20.9l23.7-106.7
		c3.7-16.7-9-32.5-26-32.5H143.2z"/>
	<path class="st0" d="M234.7,416c0,17.7-14.3,32-32,32c-17.7,0-32-14.3-32-32c0-17.7,14.3-32,32-32C220.3,384,234.7,398.3,234.7,416
		z"/>
	<path class="st0" d="M405.3,416c0,17.7-14.3,32-32,32s-32-14.3-32-32c0-17.7,14.3-32,32-32S405.3,398.3,405.3,416z"/>
</g>
</svg>
