<svg fill="none" height="512" viewBox="0 0 24 24" width="512" xmlns="http://www.w3.org/2000/svg"><g clip-rule="evenodd" fill="rgb(0,0,0)" fill-rule="evenodd"><path d="m2.25 4c0-.41421.33579-.75.75-.75h.43845c1.26188 0 2.36184.85882 2.66789 2.08303l.22924.91697h12.17122c1.7593 0 3.0661 1.62915 2.6845 3.34656l-1.1111 5.00004c-.2796 1.2582-1.3956 2.1534-2.6845 2.1534h-7.83415c-1.26188 0-2.36184-.8588-2.66789-2.083l-2.24253-8.97017c-.13912-.55646-.6391-.94683-1.21268-.94683h-.43845c-.41421 0-.75-.33579-.75-.75zm4.46058 3.75 1.63829 6.5532c.13912.5564.6391.9468 1.21268.9468h7.83415c.5858 0 1.0931-.4069 1.2202-.9788l1.1111-5.00004c.1735-.78064-.4205-1.52116-1.2202-1.52116z"/><path d="m11 19.5c0 .8284-.6716 1.5-1.5 1.5-.82843 0-1.5-.6716-1.5-1.5s.67157-1.5 1.5-1.5c.8284 0 1.5.6716 1.5 1.5z"/><path d="m19 19.5c0 .8284-.6716 1.5-1.5 1.5s-1.5-.6716-1.5-1.5.6716-1.5 1.5-1.5 1.5.6716 1.5 1.5z"/></g></svg>