<svg fill="none" height="512" viewBox="0 0 24 24" width="512" xmlns="http://www.w3.org/2000/svg"><path clip-rule="evenodd" d="m10.5512 6.43929c-1.55594-1.58572-4.07254-1.58572-5.62844 0-1.56368 1.59366-1.56368 4.18331 0 5.77691l6.18504 6.3036c.49.4994 1.2944.4994 1.7844 0l6.185-6.3036c1.5637-1.5936 1.5637-4.18325 0-5.77691-1.5559-1.58572-4.0725-1.58572-5.6283 0l-.9136.93102c-.141.14374-.3339.22473-.5353.22473s-.3943-.08099-.5353-.22473zm1.0706-1.05054.3782.38541.3782-.38541c2.1439-2.185 5.6258-2.185 7.7697 0 2.1361 2.17705 2.1361 5.70095 0 7.87805l-6.185 6.3035c-1.078 1.0987-2.8478 1.0987-3.9258 0l-6.18502-6.3035c-2.13611-2.1771-2.13611-5.701 0-7.87805 2.1439-2.185 5.62585-2.185 7.76972 0z" fill="rgb(0,0,0)" fill-rule="evenodd"/></svg>