<?xml version="1.0" encoding="utf-8"?>
<!-- Generator: Adobe Illustrator 26.5.2, SVG Export Plug-In . SVG Version: 6.00 Build 0)  -->
<svg version="1.1" id="Glyph" xmlns="http://www.w3.org/2000/svg" xmlns:xlink="http://www.w3.org/1999/xlink" x="0px" y="0px"
	 viewBox="0 0 450.1 448" style="enable-background:new 0 0 450.1 448;" xml:space="preserve">
<g id="Layer_2_00000090290182368036896610000006778925892297459633_">
	<path d="M120.9,30.7v60.5c0,16.7-13.5,30.2-30.2,30.2H30.2C13.5,121.4,0,107.9,0,91.2V30.7C0,14,13.5,0.5,30.2,0.5h60.5
		C107.4,0.5,120.9,14,120.9,30.7z"/>
	<path d="M120.9,194v60.5c0,16.7-13.5,30.2-30.2,30.2H30.2C13.5,284.7,0,271.2,0,254.5V194c0-16.7,13.5-30.2,30.2-30.2h60.5
		C107.4,163.8,120.9,177.3,120.9,194z"/>
	<path d="M120.9,357.3v60.5c0,16.7-13.5,30.2-30.2,30.2H30.2C13.5,448,0,434.5,0,417.8v-60.5c0-16.7,13.5-30.2,30.2-30.2h60.5
		C107.4,327.1,120.9,340.6,120.9,357.3z"/>
	<path d="M183,91.2c-16.7,0-30.2-13.5-30.2-30.2s13.5-30.2,30.2-30.2h235.9c16.7,0,30.2,13.5,30.2,30.2s-13.5,30.2-30.2,30.2H183z"
		/>
	<path d="M183,254.5c-16.7,0-30.2-13.5-30.2-30.2S166.3,194,183,194h235.9c16.7,0,30.2,13.5,30.2,30.2s-13.5,30.2-30.2,30.2H183z"/>
	<path d="M183,417.8c-16.7,0-30.2-13.5-30.2-30.2c0-16.7,13.5-30.2,30.2-30.2h235.9c16.7,0,30.2,13.5,30.2,30.2
		c0,16.7-13.5,30.2-30.2,30.2H183z"/>
</g>
</svg>
