<?xml version="1.0" encoding="utf-8"?>
<!-- Generator: Adobe Illustrator 26.5.2, SVG Export Plug-In . SVG Version: 6.00 Build 0)  -->
<svg version="1.1" id="Glyph" xmlns="http://www.w3.org/2000/svg" xmlns:xlink="http://www.w3.org/1999/xlink" x="0px" y="0px"
	 viewBox="0 0 450.1 448" style="enable-background:new 0 0 450.1 448;" xml:space="preserve">
<g>
	<path d="M24,0h141.5c13.3,0,24,10.7,24,24v141.5c0,13.3-10.7,24-24,24H24c-13.3,0-24-10.7-24-24V24C0,10.7,10.7,0,24,0z"/>
	<path d="M284.6,0h141.5c13.3,0,24,10.7,24,24v141.5c0,13.3-10.7,24-24,24H284.6c-13.3,0-24-10.7-24-24V24
		C260.6,10.7,271.3,0,284.6,0z"/>
	<path d="M24,258.5h141.5c13.3,0,24,10.7,24,24V424c0,13.3-10.7,24-24,24H24c-13.3,0-24-10.7-24-24V282.5
		C0,269.2,10.7,258.5,24,258.5z"/>
	<path d="M284.6,258.5h141.5c13.3,0,24,10.7,24,24V424c0,13.3-10.7,24-24,24H284.6c-13.3,0-24-10.7-24-24V282.5
		C260.6,269.2,271.3,258.5,284.6,258.5z"/>
</g>
</svg>
