<?xml version="1.0" encoding="utf-8"?>
<!-- Generator: Adobe Illustrator 24.1.1, SVG Export Plug-In . SVG Version: 6.00 Build 0)  -->
<svg version="1.1" id="레이어_1" xmlns="http://www.w3.org/2000/svg" xmlns:xlink="http://www.w3.org/1999/xlink" x="0px"
	 y="0px" viewBox="0 0 448 448" style="enable-background:new 0 0 448 448; fill: #ddd;" xml:space="preserve">
<g id="Layer_2">
	<path d="M224,112c-8.8,0-16,7.2-16,16v112c0,8.8,7.2,16,16,16c8.8,0,16-7.2,16-16V128C240,119.2,232.8,112,224,112z"/>
	<path d="M224,288c-8.8,0-16,7.2-16,16v16c0,8.8,7.2,16,16,16c8.8,0,16-7.2,16-16v-16C240,295.2,232.8,288,224,288z"/>
	<path d="M224,0C100.3,0,0,100.3,0,224s100.3,224,224,224s224-100.3,224-224C447.9,100.3,347.7,0.1,224,0z M224,416
		c-106,0-192-86-192-192S118,32,224,32s192,86,192,192C415.9,330,330,415.9,224,416z"/>
</g>
</svg>
