<?xml version="1.0" encoding="utf-8"?>
<!-- Generator: Adobe Illustrator 27.9.0, SVG Export Plug-In . SVG Version: 6.00 Build 0)  -->
<svg version="1.1" id="_컨텐츠" xmlns="http://www.w3.org/2000/svg" xmlns:xlink="http://www.w3.org/1999/xlink" x="0px" y="0px"
	 viewBox="0 0 76.3 30" style="enable-background:new 0 0 76.3 30;" xml:space="preserve">
<style type="text/css">
	.st0{fill:#FFFFFF;}
</style>
<path class="st0" d="M38.6,6.4h6.1c1,0,1.8,0.1,2.5,0.4c0.7,0.2,1.3,0.6,1.8,1c0.5,0.4,0.8,1,1,1.6c0.2,0.6,0.3,1.2,0.3,1.9v0.5
	c0,0.7-0.1,1.4-0.4,2s-0.6,1.1-1.1,1.6c-0.5,0.5-1.1,0.8-1.8,1.1c-0.7,0.3-1.5,0.4-2.5,0.4h-3.8v6.7h-2.3V6.4z M40.9,8.5v6.4h3.4
	c2.5,0,3.7-1,3.7-3.1v-0.4c0-1-0.3-1.7-0.9-2.2s-1.5-0.7-2.6-0.7L40.9,8.5L40.9,8.5z"/>
<path class="st0" d="M56.4,23.8c-1.3,0-2.4-0.3-3.1-1s-1.2-1.5-1.2-2.7v-0.6c0-1.1,0.4-2,1.1-2.7c0.7-0.7,2-1.1,3.6-1.1h3.3v-0.8
	c0-0.9-0.2-1.5-0.6-1.9c-0.4-0.4-1.1-0.6-2.1-0.6c-0.8,0-1.4,0.1-2,0.4c-0.6,0.2-1.2,0.6-1.8,0.9L52.6,12c0.6-0.4,1.3-0.8,2.1-1.1
	s1.7-0.5,2.8-0.5c0.7,0,1.4,0.1,2,0.3c0.6,0.2,1.1,0.4,1.6,0.8c0.4,0.4,0.8,0.8,1,1.3c0.2,0.5,0.4,1.1,0.4,1.8v9.1h-2.2V22h0
	c-0.1,0.2-0.3,0.5-0.5,0.6c-0.2,0.2-0.5,0.4-0.7,0.5c-0.3,0.2-0.7,0.3-1.1,0.4C57.5,23.7,57,23.8,56.4,23.8z M60.2,17.6h-3.3
	c-0.9,0-1.5,0.2-1.9,0.5s-0.6,0.8-0.6,1.5V20c0,0.6,0.2,1.1,0.7,1.4s1,0.4,1.6,0.4c0.6,0,1.1-0.1,1.5-0.2c0.4-0.1,0.8-0.3,1.2-0.6
	c0.3-0.2,0.5-0.5,0.7-0.8c0.1-0.3,0.2-0.7,0.2-1.2C60.2,18.9,60.2,17.6,60.2,17.6z"/>
<path class="st0" d="M70.5,21l3.4-10.4h2.4l-6.8,18.4l-2.1-0.7l1.7-4.4l-4.7-13.2H67L70.5,21L70.5,21L70.5,21z"/>
<path class="st0" d="M0,0v30h30V0H0z M22.5,21.9h-5.1l-4.8-7.1v7.1h-5V8.1h5.1l4.8,7.1V8.1h5V21.9z"/>
</svg>
