<?xml version="1.0" encoding="UTF-8"?><svg id="_컨텐츠" xmlns="http://www.w3.org/2000/svg" viewBox="0 0 76.33 30"><defs><style>.cls-1{fill:#333;}.cls-1,.cls-2,.cls-3{stroke-width:0px;}.cls-2{fill:#fff;}.cls-3{fill:#00c73c;}</style></defs><path class="cls-1" d="m38.57,6.43h6.12c.96,0,1.8.12,2.52.37.71.25,1.3.59,1.77,1.02.47.44.81.96,1.04,1.56.23.6.34,1.25.34,1.95v.5c0,.7-.12,1.35-.37,1.96-.25.61-.6,1.15-1.08,1.6-.47.46-1.06.82-1.77,1.09-.7.27-1.52.4-2.45.4h-3.77v6.68h-2.35V6.43Zm2.35,2.04v6.37h3.38c2.47,0,3.71-1.02,3.71-3.07v-.43c0-.98-.3-1.71-.89-2.18-.59-.47-1.45-.7-2.56-.7h-3.64Z"/><path class="cls-1" d="m56.4,23.76c-1.32,0-2.36-.32-3.13-.97-.77-.65-1.15-1.55-1.15-2.69v-.64c0-1.11.37-2.01,1.12-2.71.74-.7,1.95-1.05,3.61-1.05h3.3v-.76c0-.87-.21-1.52-.63-1.94-.42-.42-1.11-.63-2.06-.63-.76,0-1.42.12-1.99.36-.56.24-1.15.56-1.75.95l-1.14-1.71c.63-.44,1.35-.83,2.14-1.15.79-.32,1.71-.49,2.76-.49.73,0,1.39.09,2,.27.6.18,1.12.45,1.56.81.44.36.78.79,1.02,1.31.25.52.37,1.1.37,1.75v9.11h-2.21v-1.57h-.02c-.13.24-.3.46-.51.65-.21.2-.45.37-.7.51-.35.19-.72.34-1.13.44-.4.1-.89.15-1.46.15Zm3.76-6.11h-3.26c-.9,0-1.55.17-1.94.52-.39.35-.58.83-.58,1.45v.33c0,.63.22,1.09.67,1.38s.97.43,1.59.43c.57,0,1.07-.07,1.49-.2.42-.13.8-.34,1.15-.61.32-.24.54-.51.68-.82.13-.31.2-.71.2-1.2v-1.28Z"/><path class="cls-1" d="m70.48,20.96l3.42-10.39h2.43l-6.75,18.38-2.09-.74,1.69-4.45-4.73-13.2h2.5l3.45,10.39h.1Z"/><rect class="cls-3" width="30" height="30"/><polygon class="cls-2" points="17.39 21.87 12.55 14.76 12.55 21.87 7.5 21.87 7.5 8.13 12.62 8.13 17.46 15.24 17.46 8.13 22.5 8.13 22.5 21.87 17.39 21.87"/></svg>