<?xml version="1.0" encoding="utf-8"?>
<!-- Generator: Adobe Illustrator 24.1.1, SVG Export Plug-In . SVG Version: 6.00 Build 0)  -->
<svg version="1.1" id="Capa_1" xmlns="http://www.w3.org/2000/svg" xmlns:xlink="http://www.w3.org/1999/xlink" x="0px" y="0px"
	 viewBox="0 0 512 434" width="512px" height="434px" style="enable-background:new 0 0 512 434;" xml:space="preserve">
<path d="M432,78.7h-45.6l-17.2-34.4C355.5,17,328.1,0.1,297.6,0.1h-83.2c-30.5,0-57.9,16.9-71.6,44.2l-17.2,34.4H80
	c-44.1,0-80,35.9-80,80v195.2c0,44.1,35.9,80,80,80h352c44.1,0,80-35.9,80-80V158.7C512,114.6,476.1,78.7,432,78.7L432,78.7z
	 M472,353.9c0,22.1-17.9,40-40,40H80c-22.1,0-40-17.9-40-40V158.7c0-22.1,17.9-40,40-40h58c7.6,0,14.5-4.3,17.9-11.1l22.8-45.5
	c6.8-13.6,20.5-22.1,35.8-22.1h83.2c15.2,0,29,8.5,35.8,22.1l22.8,45.5c3.4,6.8,10.3,11.1,17.9,11.1h58c22.1,0,40,17.9,40,40
	L472,353.9z M256,137.4c-54.4,0-98.7,44.3-98.7,98.7s44.3,98.7,98.7,98.7s98.7-44.3,98.7-98.7C354.7,181.7,310.4,137.4,256,137.4z
	 M256,294.7c-32.3,0-58.7-26.3-58.7-58.7s26.3-58.7,58.7-58.7s58.7,26.3,58.7,58.7S288.3,294.7,256,294.7z"/>
</svg>
