<svg id="Capa_1" enable-background="new 0 0 510.755 510.755" style="fill: #888;" height="512" viewBox="0 0 510.755 510.755" width="512" xmlns="http://www.w3.org/2000/svg"><g><path d="m60.074 210.148h150v-150h-150zm30-120h90v90h-90z"/><path d="m120.074 120.148h30v30h-30z"/><path d="m60.074 450.148h150v-150h-150zm30-120h90v90h-90z"/><path d="m120.074 360.148h30v30h-30z"/><path d="m450.008 60.148h-150v150h150zm-30 120h-90v-90h90z"/><path d="m360.008 120.148h30v30h-30z"/><path d="m510.681 489.542-81.544-81.544c13.144-17.535 20.938-39.299 20.938-62.849 0-57.897-47.103-105-105-105s-105 47.103-105 105 47.103 105 105 105c23.551 0 45.315-7.794 62.849-20.938l81.544 81.544zm-175.607-218.707v64.313h-64.313c4.468-33.367 30.946-59.845 64.313-64.313zm10 149.313c-34.429 0-63.494-23.327-72.271-55h92.271v-92.271c31.673 8.777 55 37.842 55 72.271 0 41.355-33.644 75-75 75z"/><path d="m30.074 30.148h90v-30h-120v119.704h30z"/><path d="m30.223 390.148h-30v120h119.703v-30h-89.703z"/><path d="m480.074 120h30v-120h-119.703v30h89.703z"/><path d="m240.074 60.148h30v60h-30z"/><path d="m180.074 240.148h60v30h-60z"/><path d="m60.074 240.148h90v30h-90z"/><path d="m240.074 150.148h30v60h-30z"/></g></svg>