<?xml version="1.0" encoding="utf-8"?>
<!-- Generator: Adobe Illustrator 24.1.1, SVG Export Plug-In . SVG Version: 6.00 Build 0)  -->
<svg version="1.1" id="레이어_1" xmlns="http://www.w3.org/2000/svg" xmlns:xlink="http://www.w3.org/1999/xlink" x="0px"
	 y="0px" viewBox="0 0 450 450" width="450px" height="450px" style="enable-background:new 0 0 450 450;" xml:space="preserve">
<g id="Layer_2">
	<path d="M225,1C101.3,1,1,101.3,1,225s100.3,224,224,224s224-100.3,224-224C448.9,101.3,348.7,1.1,225,1z M225,417
		c-106,0-192-86-192-192S119,33,225,33s192,86,192,192C416.9,331,331,416.9,225,417z"/>
	<path d="M236.4,114c-30.9-5.6-61.3,12-71.8,41.6c-3.1,8.3,1,17.5,9.3,20.6s17.5-1,20.6-9.3c0.1-0.2,0.1-0.4,0.2-0.6
		c5.9-16.7,24.1-25.4,40.8-19.5c16.7,5.9,25.4,24.1,19.5,40.8c-3,8.6-9.5,15.4-17.9,18.9c-17.4,7.5-28.5,24.8-28.2,43.7v6.7
		c0,8.8,7.2,16,16,16c8.8,0,16-7.2,16-16v-6.7c-0.2-6,3.1-11.5,8.5-14.2c27.9-11.4,44-40.8,38.5-70.5
		C283.1,139.4,262.6,118.9,236.4,114L236.4,114z"/>
	<path d="M225,289c-8.8,0-16,7.2-16,16v16c0,8.8,7.2,16,16,16c8.8,0,16-7.2,16-16v-16C241,296.2,233.8,289,225,289z"/>
</g>
</svg>
