<?xml version="1.0" encoding="utf-8"?>
<!-- Generator: Adobe Illustrator 24.1.1, SVG Export Plug-In . SVG Version: 6.00 Build 0)  -->
<svg version="1.1" id="레이어_1" xmlns="http://www.w3.org/2000/svg" xmlns:xlink="http://www.w3.org/1999/xlink" x="0px"
	 y="0px" viewBox="0 0 195 34" width="195px" height="34px" style="enable-background:new 0 0 195 34;" xml:space="preserve">
<style type="text/css">
	.st0{fill:#AAAAAA;}
</style>
<g>
	<path class="st0" d="M19,1.3l4.4,10.2l11.1,0.9c0.5,0,0.8,0.5,0.8,0.9c0,0.2-0.1,0.4-0.3,0.6l-8.5,7.3l2.5,10.8
		c0.1,0.5-0.1,1-0.6,1.1c-0.2,0.1-0.5,0-0.7-0.1l-9.6-5.7l-9.6,5.7c-0.4,0.3-1,0.1-1.2-0.3c-0.1-0.2-0.2-0.5-0.1-0.7l2.5-10.8
		L1.4,14C1,13.7,1,13.2,1.3,12.8c0.1-0.2,0.4-0.3,0.6-0.3l11.1-0.9l4.4-10.2c0.2-0.4,0.7-0.7,1.1-0.5C18.8,0.9,18.9,1.1,19,1.3z"/>
	<path class="st0" d="M58.7,1.3L63,11.6l11.2,0.9c0.5,0,0.8,0.5,0.8,0.9c0,0.2-0.1,0.4-0.3,0.6l-8.4,7.3l2.5,10.8
		c0.1,0.5-0.1,1-0.6,1.1c-0.2,0.1-0.5,0-0.7-0.1l-9.6-5.7l-9.6,5.7c-0.4,0.3-1,0.1-1.2-0.3c-0.1-0.2-0.2-0.5-0.1-0.7l2.5-10.8L41,14
		c-0.4-0.3-0.4-0.9-0.1-1.2c0.1-0.2,0.3-0.3,0.5-0.3l11.2-0.9l4.4-10.2c0.2-0.4,0.7-0.7,1.1-0.5C58.4,0.9,58.6,1.1,58.7,1.3z"/>
	<path class="st0" d="M98.3,1.3l4.4,10.2l11.2,0.9c0.5,0,0.8,0.5,0.8,0.9c0,0.2-0.1,0.4-0.3,0.6l-8.4,7.3l2.5,10.8
		c0.1,0.5-0.1,1-0.6,1.1c-0.2,0.1-0.5,0-0.7-0.1l-9.6-5.8l-9.6,5.7c-0.4,0.3-1,0.1-1.2-0.3c-0.1-0.2-0.2-0.5-0.1-0.7l2.5-10.8
		L80.7,14c-0.4-0.3-0.4-0.9-0.1-1.2c0.1-0.2,0.4-0.3,0.6-0.3l11.2-0.9l4.4-10.2c0.2-0.4,0.7-0.7,1.1-0.5C98.1,0.9,98.2,1.1,98.3,1.3
		z"/>
	<path class="st0" d="M138,1.3l4.4,10.2l11.2,0.9c0.5,0,0.8,0.5,0.8,0.9c0,0.2-0.1,0.4-0.3,0.6l-8.5,7.3l2.5,10.8
		c0.1,0.5-0.1,1-0.6,1.1c-0.2,0.1-0.5,0-0.7-0.1l-9.6-5.7l-9.6,5.7c-0.4,0.3-1,0.1-1.2-0.3c-0.1-0.2-0.2-0.5-0.1-0.7l2.5-10.8
		l-8.5-7.3c-0.4-0.3-0.4-0.9-0.1-1.2c0.1-0.2,0.4-0.3,0.6-0.3l11.1-0.9l4.4-10.2c0.2-0.4,0.7-0.7,1.1-0.5
		C137.7,0.9,137.8,1.1,138,1.3L138,1.3z"/>
	<path class="st0" d="M177.6,1.3l4.4,10.2l11.2,0.9c0.5,0,0.8,0.5,0.8,0.9c0,0.2-0.1,0.4-0.3,0.6l-8.4,7.3l2.5,10.8
		c0.1,0.5-0.1,1-0.6,1.1c-0.2,0.1-0.5,0-0.7-0.1l-9.6-5.7l-9.6,5.7c-0.4,0.3-1,0.1-1.2-0.3c-0.1-0.2-0.2-0.5-0.1-0.7l2.5-10.8
		L160,14c-0.4-0.3-0.4-0.9-0.1-1.2c0.1-0.2,0.4-0.3,0.6-0.3l11.1-0.9L176,1.3c0.2-0.4,0.7-0.7,1.1-0.5
		C177.3,0.9,177.5,1.1,177.6,1.3z"/>
</g>
</svg>
