<?xml version="1.0" encoding="utf-8"?>
<!-- Generator: Adobe Illustrator 24.1.1, SVG Export Plug-In . SVG Version: 6.00 Build 0)  -->
<svg version="1.1" id="레이어_1" xmlns="http://www.w3.org/2000/svg" xmlns:xlink="http://www.w3.org/1999/xlink" x="0px"
	 y="0px" viewBox="0 0 449 449" style="enable-background:new 0 0 449 449;" xml:space="preserve">
<g id="Layer_2">
	<path d="M444.3,421.7L339.5,316.9c68.6-81.1,58.5-202.6-22.6-271.2S114.3-12.8,45.7,68.3s-58.5,202.6,22.6,271.2
		c71.7,60.7,176.8,60.7,248.6,0l104.8,104.8c6.4,6.1,16.5,6,22.6-0.4C450.3,437.8,450.3,427.9,444.3,421.7z M33,193
		c0-88.4,71.6-160,160-160s160,71.6,160,160s-71.6,160-160,160C104.7,352.9,33.1,281.4,33,193L33,193z"/>
</g>
</svg>
