<svg xmlns="http://www.w3.org/2000/svg" width="33" height="22" viewBox="0 0 33 22">
  <defs>
    <style>
      .cls-1 {
        fill-rule: evenodd;
      }
    </style>
  </defs>
  <path id="_4" data-name="4" class="cls-1" d="M26.883,12.04a6.909,6.909,0,1,0-9.769-9.771h0L16.5,2.882l-0.615-.614h0A6.909,6.909,0,1,0,6.115,12.04v0l1.169,1.163h0l8.646,8.622a0.8,0.8,0,0,0,1.134,0L25.712,13.2h0l1.169-1.163v0Zm-2.3.026h0L16.5,20.123l-8.08-8.057h0L7.251,10.9a5.3,5.3,0,1,1,7.5-7.5h0l1.182,1.18a0.8,0.8,0,0,0,1.135,0l1.182-1.18h0a5.3,5.3,0,1,1,7.5,7.5Zm0,0"/>
</svg>
