<svg xmlns="http://www.w3.org/2000/svg" width="33" height="22" viewBox="0 0 33 22">
  <defs>
    <style>
      .cls-1 {
        fill-rule: evenodd;
      }
    </style>
  </defs>
  <path class="cls-1" d="M27.993,19.651a11.072,11.072,0,0,0-7.651-8.906,5.936,5.936,0,1,0-6.669,0,11.072,11.072,0,0,0-7.651,8.906,2.027,2.027,0,0,0,.485,1.627,2.073,2.073,0,0,0,1.561.706H25.946a2.074,2.074,0,0,0,1.562-.706,2.027,2.027,0,0,0,.485-1.628h0ZM12.62,5.886a4.388,4.388,0,1,1,4.388,4.344A4.371,4.371,0,0,1,12.62,5.886h0ZM26.339,20.274a0.515,0.515,0,0,1-.392.178H8.067a0.514,0.514,0,0,1-.392-0.178,0.5,0.5,0,0,1-.121-0.406,9.565,9.565,0,0,1,18.906,0,0.5,0.5,0,0,1-.121.406h0Zm0,0"/>
</svg>
