<?xml version="1.0" encoding="utf-8"?>
<!-- Generator: Adobe Illustrator 24.1.1, SVG Export Plug-In . SVG Version: 6.00 Build 0)  -->
<svg version="1.1" id="레이어_1" xmlns="http://www.w3.org/2000/svg" xmlns:xlink="http://www.w3.org/1999/xlink" x="0px"
	 y="0px" viewBox="0 0 35 33" width="35" height="33" style="enable-background:new 0 0 35 33;" xml:space="preserve">
<path d="M18.3,0.8L22.7,11l11.1,1c0.5,0,0.8,0.5,0.8,1c0,0.2-0.1,0.4-0.3,0.6l-8.5,7.3l2.5,10.8c0.1,0.5-0.2,0.9-0.7,1
	c-0.2,0.1-0.5,0-0.6-0.1l-9.6-5.7l-9.6,5.7c-0.4,0.2-0.9,0.1-1.2-0.3c-0.1-0.2-0.2-0.4-0.1-0.6l2.6-10.8l-8.5-7.3
	c-0.4-0.3-0.4-0.9-0.1-1.2C0.7,12.1,1,12,1.2,12l11.1-0.9l4.4-10.2c0.2-0.4,0.7-0.7,1.1-0.5C18.1,0.4,18.2,0.6,18.3,0.8z"/>
</svg>
