<svg id="Capa_1" enable-background="new 0 0 512 512" height="512" viewBox="0 0 512 512" width="512" xmlns="http://www.w3.org/2000/svg"><g><path d="m256 0c-141.483 0-256 114.497-256 256 0 67.264 26.62 131.824 73.546 179.547l-52.914 50.613c-9.753 9.328-3.127 25.84 10.368 25.84h225.668c.186 0 .371-.003.556-.01 140.431-.654 254.776-114.467 254.776-255.99 0-141.484-114.497-256-256-256zm.625 481.992c-.152 0-.305.003-.457.008h-187.785l37.237-35.619c6.31-6.036 6.15-16.18-.358-22.011-47.83-42.852-75.262-104.221-75.262-168.37 0-124.617 101.383-226 226-226s226 101.383 226 226c0 124.275-101.103 225.654-225.375 225.992z"/><path d="m328.735 140.839c-5.853-5.854-15.357-5.858-21.213 0-27.391 27.391-142.806 142.806-156.077 156.077-2.094 2.094-3.521 4.761-4.103 7.665l-10.606 53.033c-2.106 10.531 7.21 19.737 17.65 17.651l53.033-10.607c2.904-.581 5.571-2.008 7.665-4.102 16.914-16.914 147.854-147.855 156.076-156.077 5.858-5.858 5.858-15.355 0-21.213zm-131.652 195.291-26.517 5.303 5.304-26.517 100.472-100.472 21.213 21.213zm121.685-121.685-21.213-21.213 20.574-20.574 21.213 21.213z"/></g></svg>