<svg fill="none" height="512" viewBox="0 0 24 24" width="512" xmlns="http://www.w3.org/2000/svg"><path clip-rule="evenodd" d="m5 22c-1.65685 0-3-1.3431-3-3v-7.6639c0-.8505.36096-1.66097.99311-2.2299l6.99999-6.29999c1.1409-1.02683 2.8729-1.02683 4.0138-.00001l7 6.3c.6321.56893.9931 1.3794.9931 2.2299v7.6639c0 1.6569-1.3431 3-3 3zm15.5-10.6639v7.6639c0 .8284-.6716 1.5-1.5 1.5h-3v-5.5c0-1.6569-1.3431-3-3-3h-2c-1.65685 0-3 1.3431-3 3v5.5h-3c-.82843 0-1.5-.6716-1.5-1.5v-7.6639c0-.4252.18048-.8305.49655-1.115l7.00005-6.29995c.5704-.51342 1.4364-.51342 2.0068 0l7 6.29995c.3161.2845.4966.6898.4966 1.115zm-11 9.1639v-5.5c0-.8284.6716-1.5 1.5-1.5h2c.8284 0 1.5.6716 1.5 1.5v5.5z" fill="rgb(0,0,0)" fill-rule="evenodd"/></svg>