<?xml version="1.0" encoding="utf-8"?>
<!-- Generator: Adobe Illustrator 24.1.1, SVG Export Plug-In . SVG Version: 6.00 Build 0)  -->
<svg version="1.1" id="레이어_1" xmlns="http://www.w3.org/2000/svg" xmlns:xlink="http://www.w3.org/1999/xlink" x="0px"
	 y="0px" viewBox="0 0 448 448" width="448px" height="448px" style="enable-background:new 0 0 448 448;" xml:space="preserve">
<style type="text/css">
	.st0{fill:#CCCCCC;}
</style>
<g id="Layer_2">
	<path class="st0" d="M223.9,0C100.3-0.1,0,99.9-0.1,223.5c0,39.9,10.6,79.1,30.8,113.6L0.7,427c-2.8,8.4,1.7,17.4,10.1,20.2
		c1.6,0.5,3.3,0.8,5,0.8c1.2,0,2.3-0.1,3.5-0.4l104.6-23.2c110.7,55.3,245.2,10.4,300.5-100.3S434.8,78.9,324.2,23.6
		C293,8.1,258.8,0,223.9,0z M223.9,416c-31.5,0-62.5-7.8-90.3-22.6c-2.3-1.2-4.9-1.9-7.5-1.9c-1.2,0-2.3,0.1-3.5,0.4L40,410.3
		l23.4-70.2c1.5-4.6,1-9.6-1.6-13.6c-56.5-89.6-29.7-208.1,60-264.6s208.1-29.7,264.6,60s29.7,208.1-60,264.6
		C295.8,405.8,260.3,416,223.9,416L223.9,416z"/>
	<circle class="st0" cx="231.9" cy="224" r="24"/>
	<circle class="st0" cx="312" cy="224" r="24"/>
	<circle class="st0" cx="151.9" cy="224" r="24"/>
</g>
</svg>
