<svg id="Capa_1" enable-background="new 0 0 512 512" height="512" viewBox="0 0 512 512" width="512" xmlns="http://www.w3.org/2000/svg"><g><path d="m256.003 0c-141.481 0-255.997 114.497-255.997 256 0 66.652 26.142 130.653 72.274 178.245l-66.394 50.846c-11.354 8.698-5.179 26.909 9.12 26.909h241.665c.188 0 .375-.003.563-.011 140.427-.66 254.766-114.466 254.766-255.989 0-141.484-114.496-256-255.997-256zm.625 481.991c-.155.001-.311.004-.465.009h-196.9l45.114-34.55c7.457-5.709 7.888-16.809.89-23.081-47.83-42.851-75.261-104.22-75.261-168.369 0-124.617 101.382-226 225.997-226s225.997 101.383 225.997 226c0 124.275-101.101 225.654-225.372 225.991z"/><path d="m380.746 213.634-76.9-11.175-34.391-69.685c-5.493-11.127-21.407-11.133-26.902 0l-34.391 69.685-76.9 11.175c-12.28 1.783-17.203 16.919-8.312 25.585l55.646 54.242-13.137 76.59c-2.096 12.227 10.772 21.591 21.764 15.813l68.781-36.161 68.781 36.161c10.902 5.73 23.875-3.502 21.764-15.813l-13.137-76.59 55.646-54.242c8.886-8.661 3.974-23.802-8.312-25.585zm-73.92 63.848c-3.536 3.446-5.149 8.411-4.314 13.277l9.332 54.407-48.86-25.687c-4.369-2.297-9.59-2.299-13.961 0l-48.86 25.687 9.332-54.407c.835-4.866-.778-9.831-4.314-13.277l-39.529-38.531 54.627-7.938c4.886-.709 9.108-3.778 11.294-8.206l24.43-49.502 24.43 49.502c2.186 4.427 6.408 7.496 11.294 8.206l54.627 7.938z"/></g></svg>