<?xml version="1.0" encoding="utf-8"?>
<!-- Generator: Adobe Illustrator 24.1.1, SVG Export Plug-In . SVG Version: 6.00 Build 0)  -->
<svg version="1.1" id="Capa_1" xmlns="http://www.w3.org/2000/svg" xmlns:xlink="http://www.w3.org/1999/xlink" x="0px" y="0px"
	 viewBox="0 0 512 512" style="enable-background:new 0 0 512 512;" xml:space="preserve">
<g>
	<g>
		<path d="M470.8,41.2c-45.6-45.6-119.5-45.6-165.1,0l-97.6,97.6c-47.1,47.2-42.8,122.3,0,165.1c7.2,7.2,15.1,13,23.5,17.8
			l17.8-17.8c11.7-11.7,7.6-25.3,7.4-35.2c-2.6-1.8-5.1-3.8-7.4-6.1c-22-22-22.9-59.6,0-82.5c3.4-3.4,95.5-95.5,97.5-97.5
			c22.8-22.8,59.8-22.8,82.5,0s22.8,59.8,0,82.5l-64.5,64.5c1.9,10.3,13.1,34.8,7.3,75.1c0.3-0.3,0.6-0.5,0.9-0.7l97.6-97.6
			C516.4,160.7,516.4,86.8,470.8,41.2z"/>
	</g>
</g>
<g>
	<g>
		<path d="M311.4,200.6c-7.2-7.2-15.1-13-23.5-17.8l-17.8,17.8c-11.7,11.7-7.6,25.3-7.4,35.2c2.6,1.8,5.1,3.8,7.4,6.1
			c22,22,22.9,59.6,0,82.5C266.7,327.9,167,427.6,165,429.5c-22.8,22.8-59.8,22.8-82.5,0s-22.8-59.8,0-82.5l72-72
			c-1.9-10.3-13.1-34.8-7.3-75.1c-0.3,0.3-0.6,0.5-0.9,0.7L41.2,305.7c-45.6,45.6-45.6,119.5,0,165.1c45.6,45.6,119.5,45.6,165.1,0
			l105.1-105.1C357.6,319.4,355.1,244.4,311.4,200.6z"/>
	</g>
</g>
</svg>
