<?xml version="1.0" encoding="utf-8"?>
<!-- Generator: Adobe Illustrator 26.5.2, SVG Export Plug-In . SVG Version: 6.00 Build 0)  -->
<svg version="1.1" id="레이어_1" xmlns="http://www.w3.org/2000/svg" xmlns:xlink="http://www.w3.org/1999/xlink" x="0px"
	 y="0px" viewBox="0 0 404 404" style="enable-background:new 0 0 404 404;" xml:space="preserve">
<style type="text/css">
	.st0{fill:#E10000;}
</style>
<g id="Layer_2_00000086672926683945738690000013977119139781723828_">
	<path class="st0" d="M389.9,59.4l-45.3-45.3c-18.7-18.7-49.1-18.7-67.9,0L16.1,274.8c-2.6,2.6-4.2,6-4.6,9.6L0.2,386.2
		c-1,8.8,5.4,16.7,14.1,17.7c0.6,0.1,1.2,0.1,1.8,0.1s1.2,0,1.8-0.1l101.8-11.3c3.6-0.4,7-2,9.6-4.6l260.6-260.7
		C408.6,108.5,408.6,78.1,389.9,59.4L389.9,59.4z M110.5,361.3l-76.4,8.5l8.5-76.4L226,110.1l67.9,67.9L110.5,361.3z M367.3,104.6
		l-50.8,50.8l-67.9-67.9l50.7-50.7c6.2-6.2,16.4-6.2,22.6,0L367.3,82C373.5,88.3,373.5,98.4,367.3,104.6L367.3,104.6z"/>
</g>
</svg>
