<?xml version="1.0" encoding="utf-8"?>
<!-- Generator: Adobe Illustrator 26.5.2, SVG Export Plug-In . SVG Version: 6.00 Build 0)  -->
<svg version="1.1" id="Layer_1" xmlns:svgjs="http://svgjs.com/svgjs"
	 xmlns="http://www.w3.org/2000/svg" xmlns:xlink="http://www.w3.org/1999/xlink" x="0px" y="0px" viewBox="0 0 426.5 384"
	 style="enable-background:new 0 0 426.5 384;" xml:space="preserve">
<style type="text/css">
	.st0{fill:#B7B7C5;}
</style>
<g>
	<path class="st0" d="M424.4,125.7L402,32.4C397.3,13.2,380.7,0,361.3,0H65C45.8,0,28.9,13.4,24.4,32.4L2,125.7
		c-5.1,21.8-0.4,43.9,13.2,61.4c1.7,2.3,4.1,4.1,6,6.2v148.1c0,23.5,19.2,42.7,42.7,42.7h298.7c23.5,0,42.7-19.2,42.7-42.7V193.3
		c1.9-1.9,4.3-3.8,6-6C424.8,169.8,429.8,147.4,424.4,125.7L424.4,125.7z M360.6,42.5l22.4,93.2c2.1,9,0.2,17.9-5.3,25
		c-3,3.8-9.4,10-20.1,10c-13,0-24.3-10.5-25.8-24.3L319.5,42.7L360.6,42.5z M234.6,42.7h41.8l11.5,96.4c1.1,8.3-1.5,16.6-7,22.8
		c-4.7,5.5-11.5,8.7-20.3,8.7c-14.3,0-26-12.6-26-27.9V42.7z M138.3,139.1l11.7-96.4h41.8v100.1c0,15.4-11.7,27.9-27.5,27.9
		c-7.3,0-13.9-3.2-19-8.7C140,155.6,137.5,147.3,138.3,139.1z M43.4,135.7l21.5-93h42L94.6,146.3c-1.7,13.9-12.8,24.3-25.8,24.3
		c-10.5,0-17.1-6.2-19.8-10C43.2,153.8,41.3,144.6,43.4,135.7L43.4,135.7z M63.9,341.3V212.7c1.7,0.2,3.2,0.6,4.9,0.6
		c18.6,0,35.4-7.7,47.8-20.3c12.8,12.8,29.9,20.3,49.3,20.3c18.6,0,35.2-7.7,47.6-19.8c12.6,12.2,29.7,19.8,48.9,19.8
		c17.9,0,35-7.5,47.8-20.3c12.4,12.6,29.2,20.3,47.8,20.3c1.7,0,3.2-0.4,4.9-0.6v128.6H63.9z"/>
</g>
</svg>
