<?xml version="1.0" encoding="utf-8"?>
<!-- Generator: Adobe Illustrator 26.5.2, SVG Export Plug-In . SVG Version: 6.00 Build 0)  -->
<svg version="1.1" id="Layer_1" xmlns="http://www.w3.org/2000/svg" xmlns:xlink="http://www.w3.org/1999/xlink" x="0px" y="0px"
	 viewBox="0 0 448 448" style="enable-background:new 0 0 448 448;" xml:space="preserve">
<style type="text/css">
	.st0{fill:#B7B7C5;}
</style>
<g id="Layer_22">
	<path class="st0" d="M382.4,65.6c-87.5-87.5-229.3-87.5-316.8,0s-87.5,229.3,0,316.8c87.5,87.5,229.3,87.5,316.8,0
		C469.9,294.9,469.9,153.1,382.4,65.6C382.4,65.6,382.4,65.6,382.4,65.6z M304,280.6c6.5,6,6.8,16.2,0.7,22.6
		c-0.2,0.3-0.5,0.5-0.7,0.7c-3,3-7.1,4.7-11.4,4.6c-4.2,0-8.2-1.7-11.2-4.6L224,246.6L167.3,304c-3,3-7,4.6-11.2,4.6
		c-4.3,0-8.3-1.6-11.4-4.6c-6.2-6.2-6.2-16.3,0-22.6l56.6-57.4l-56.6-56.6c-5.7-6.7-5-16.8,1.7-22.6c6-5.1,14.8-5.1,20.8,0
		l56.6,56.6l56.6-56.6c6.2-6.5,16.5-6.6,23-0.4s6.6,16.5,0.4,23L246.5,224L304,280.6z"/>
</g>
</svg>
