<?xml version="1.0" encoding="utf-8"?>
<!-- Generator: Adobe Illustrator 26.5.0, SVG Export Plug-In . SVG Version: 6.00 Build 0)  -->
<svg version="1.1" id="Layer_1" xmlns="http://www.w3.org/2000/svg" xmlns:xlink="http://www.w3.org/1999/xlink" x="0px" y="0px"
	 viewBox="0 0 512 512" style="enable-background:new 0 0 512 512;" xml:space="preserve">
<style type="text/css">
	.st0{fill:#2E7D32;}
</style>
<path class="st0" d="M61.9,61.9l268.8-38.4c4.3-2.1,10.7,2.1,10.7,8.5v2.1v443.7c0,6.4-4.3,10.7-10.7,10.7c0,0,0,0-2.1,0L61.9,450.1
	c-10.7-2.1-19.2-10.7-19.2-21.3V83.2C42.7,72.5,51.2,61.9,61.9,61.9L61.9,61.9z M362.7,64H448c12.8,0,21.3,8.5,21.3,21.3v341.3
	c0,12.8-8.5,21.3-21.3,21.3h-85.3V64z M217.6,256l59.7-85.3h-51.2L192,219.7l-34.1-49.1h-51.2l59.7,85.3l-59.7,85.3h51.2l34.1-49.1
	l34.1,49.1h51.2L217.6,256z"/>
</svg>
