<?xml version="1.0" encoding="utf-8"?>
<!-- Generator: Adobe Illustrator 26.5.2, SVG Export Plug-In . SVG Version: 6.00 Build 0)  -->
<svg version="1.1" id="Layer_1" xmlns="http://www.w3.org/2000/svg" xmlns:xlink="http://www.w3.org/1999/xlink" x="0px" y="0px"
	 viewBox="0 0 409 492" style="enable-background:new 0 0 409 492;" xml:space="preserve">
<g>
	<g>
		<path d="M401.1,185.4L223.6,7.8C218.5,2.8,211.8,0,204.4,0c-7.2,0-14,2.8-19,7.8L7.9,185.4c-10.5,10.5-10.5,27.6,0,38.1L24,239.6
			c5.1,5.1,11.8,7.8,19,7.8c7.2,0,14.2-2.8,19.3-7.8L166.1,136v329.1c0,14.8,11.6,26.9,26.4,26.9h22.8c14.8,0,27.6-12.1,27.6-26.9
			V134.8l104.4,104.8c5.1,5.1,11.6,7.8,18.8,7.8s13.9-2.8,18.9-7.8l16.1-16.1C411.7,213,411.6,195.9,401.1,185.4z"/>
	</g>
</g>
</svg>
