<svg xmlns="http://www.w3.org/2000/svg" version="1.1" xmlns:xlink="http://www.w3.org/1999/xlink" xmlns:svgjs="http://svgjs.com/svgjs" width="512" height="512" x="0" y="0" viewBox="0 0 24 24" style="enable-background:new 0 0 512 512" xml:space="preserve" class=""><g><path d="M18 1H6a5 5 0 0 0-5 5v8a5 5 0 0 0 5 5h2v2H6a1 1 0 0 0 0 2h12a1 1 0 0 0 0-2h-2v-2h2a5 5 0 0 0 5-5V6a5 5 0 0 0-5-5zm-4 20h-4v-2h4zm7-7a3 3 0 0 1-3 3H6a3 3 0 0 1-3-3V6a3 3 0 0 1 3-3h12a3 3 0 0 1 3 3z" fill="#00c2a1" data-original="#000000" class=""></path></g></svg>