<?xml version="1.0" encoding="utf-8"?>
<!-- Generator: Adobe Illustrator 26.5.2, SVG Export Plug-In . SVG Version: 6.00 Build 0)  -->
<svg version="1.1" id="Layer_1" xmlns="http://www.w3.org/2000/svg" xmlns:xlink="http://www.w3.org/1999/xlink" x="0px" y="0px"
	 viewBox="0 0 426.7 426.7" style="enable-background:new 0 0 426.7 426.7;" xml:space="preserve">
<style type="text/css">
	.st0{fill-rule:evenodd;clip-rule:evenodd;}
</style>
<g id="Calendar__x2F__Clock">
	<path id="Vector__x28_Stroke_x29_" class="st0" d="M213.3,42.7c-94.3,0-170.7,76.4-170.7,170.7c0,94.3,76.4,170.7,170.7,170.7
		c94.3,0,170.7-76.4,170.7-170.7C384,119.1,307.6,42.7,213.3,42.7z M0,213.3C0,95.5,95.5,0,213.3,0c117.8,0,213.3,95.5,213.3,213.3
		c0,117.8-95.5,213.3-213.3,213.3C95.5,426.7,0,331.2,0,213.3z M213.3,85.3c11.8,0,21.3,9.6,21.3,21.3V192H320
		c11.8,0,21.3,9.6,21.3,21.3s-9.6,21.3-21.3,21.3H213.3c-11.8,0-21.3-9.6-21.3-21.3V106.7C192,94.9,201.6,85.3,213.3,85.3z"/>
</g>
</svg>
