<svg id="&#x421;&#x43B;&#x43E;&#x439;_1" enable-background="new 0 0 128 128" height="512" viewBox="0 0 128 128" width="512" xmlns="http://www.w3.org/2000/svg"><g><path d="m51.1 86.9c7.5-3.9 12.7-11.7 12.7-20.8 0-12.9-10.5-23.3-23.3-23.3s-23.3 10.5-23.3 23.3c0 9 5.2 16.9 12.7 20.8-17.2 4.7-29.9 20.4-29.9 39.1 0 1.1.9 2 2 2s2-.9 2-2c0-20.1 16.4-36.5 36.5-36.5s36.5 16.4 36.5 36.5c0 1.1.9 2 2 2s2-.9 2-2c0-18.7-12.7-34.4-29.9-39.1zm-29.9-20.8c0-10.7 8.7-19.3 19.3-19.3s19.3 8.7 19.3 19.3-8.7 19.3-19.3 19.3-19.3-8.6-19.3-19.3z"/><path d="m98 0c-16.5 0-30 13.5-30 30 0 5 1.3 9.9 3.7 14.3l-3.6 13.1c-.2.7 0 1.4.5 1.9s1.2.7 1.9.5l13.3-3.5c4.4 2.5 9.3 3.7 14.2 3.7 16.5 0 30-13.5 30-30s-13.4-30-30-30zm0 56c-4.5 0-9-1.2-12.9-3.4-.3-.2-.6-.3-1-.3-.2 0-.3 0-.5.1l-10.7 2.8 2.9-10.6c.1-.5.1-1.1-.2-1.5-2.3-4-3.5-8.5-3.5-13.1-.1-14.3 11.6-26 25.9-26s26 11.7 26 26-11.6 26-26 26z"/><path d="m96.6 16.6c-.4.4-.6.9-.6 1.4s.2 1 .6 1.4c.2.2.4.3.6.4.3.2.6.2.8.2.5 0 1-.2 1.4-.6.1-.1.2-.2.3-.3s.1-.2.2-.3c0-.1.1-.3.1-.4s0-.3 0-.4c0-.5-.2-1-.6-1.4-.7-.8-2-.8-2.8 0z"/><path d="m98 24c-1.1 0-2 .9-2 2v17c0 1.1.9 2 2 2s2-.9 2-2v-17c0-1.1-.9-2-2-2z"/></g></svg>