<?xml version="1.0" encoding="utf-8"?>
<!-- Generator: Adobe Illustrator 26.5.2, SVG Export Plug-In . SVG Version: 6.00 Build 0)  -->
<svg version="1.1" id="Capa_1" xmlns="http://www.w3.org/2000/svg" xmlns:xlink="http://www.w3.org/1999/xlink" x="0px" y="0px"
	 viewBox="0 0 323.4 323.4" style="enable-background:new 0 0 323.4 323.4;" xml:space="preserve">
<style type="text/css">
	.st0{fill:#FFFFFF;}
</style>
<path class="st0" d="M323.4,164.4V159l-18.3-4.3c-0.4-8-1.3-15.9-3-23.5l16.5-8.8l-1.4-5.2l-18.7,0.6c-2.4-7.6-5.5-14.9-9.1-21.8
	l13.7-12.8l-2.7-4.7l-18,5.5c-4.3-6.6-9.1-12.9-14.4-18.7l10-16l-3.8-3.8l-16,10c-5.8-5.3-12-10.1-18.7-14.4l5.5-18l-4.7-2.7
	L227.4,34c-7-3.6-14.3-6.7-21.8-9.1l0.6-18.7L201,4.8l-8.8,16.5c-7.6-1.7-15.5-2.6-23.5-3L164.4,0H159l-4.3,18.3
	c-8,0.4-15.9,1.3-23.5,3l-8.8-16.5l-5.2,1.4l0.6,18.7C110.3,27.3,103,30.4,96,34L83.2,20.3L78.5,23L84,41
	c-6.6,4.3-12.9,9.1-18.7,14.4l-16-10l-3.8,3.8l10,16C50.1,71.1,45.3,77.3,41,84l-18-5.5l-2.7,4.7L34,96c-3.6,7-6.7,14.3-9.1,21.8
	l-18.7-0.6l-1.4,5.2l16.5,8.8c-1.7,7.6-2.6,15.5-3,23.5L0,159v5.4l18.3,4.3c0.4,8,1.3,15.9,3,23.5L4.8,201l1.4,5.2l18.7-0.6
	c2.4,7.6,5.5,14.9,9.1,21.8l-13.7,12.8l2.7,4.7l18-5.5c4.3,6.6,9.1,12.9,14.4,18.7l-10,16l3.8,3.8l16-10c5.8,5.3,12,10.1,18.7,14.4
	l-5.5,18l4.7,2.7L96,289.4c7,3.6,14.3,6.7,21.8,9.1l-0.6,18.7l5.2,1.4l8.8-16.5c7.6,1.7,15.5,2.6,23.5,3l4.3,18.3h5.4l4.3-18.3
	c8-0.4,15.9-1.3,23.5-3l8.8,16.5l5.2-1.4l-0.6-18.7c7.6-2.4,14.9-5.5,21.8-9.1l12.8,13.7l4.7-2.7l-5.5-18
	c6.6-4.3,12.9-9.1,18.7-14.4l16,10l3.8-3.8l-10-16c5.3-5.8,10.1-12,14.4-18.7l18,5.5l2.7-4.7l-13.7-12.8c3.6-7,6.7-14.3,9.1-21.8
	l18.7,0.6l1.4-5.2l-16.5-8.8c1.7-7.6,2.6-15.5,3-23.5L323.4,164.4z M274.5,131.7c2.2,8.4-4.5,16.5-13.1,16.5h-81.8
	c-3.6-4.7-8.9-7.9-15.1-8.7l-40.9-70.9c-4.5-7.8-0.3-17.6,8.4-19.9c9.5-2.5,19.5-3.9,29.7-3.9C215.7,44.9,261.2,81.8,274.5,131.7z
	 M170.7,161.7c0,5-4,9-9,9s-9-4-9-9s4-9,9-9S170.7,156.7,170.7,161.7z M44.9,161.7c0-32,13-61,34-82.1c6.3-6.4,16.9-5.1,21.4,2.7
	l40.8,70.6c-1.2,2.7-1.8,5.7-1.8,8.8s0.6,6.1,1.8,8.8l-40.8,70.6c-4.5,7.8-15.1,9-21.4,2.7C57.9,222.7,44.9,193.7,44.9,161.7z
	 M161.7,278.5c-10.3,0-20.2-1.3-29.7-3.9c-8.7-2.3-12.9-12.1-8.4-19.9l40.9-70.9c6.2-0.8,11.5-4,15.1-8.7h81.8
	c8.7,0,15.4,8.1,13.1,16.5C261.2,241.6,215.7,278.5,161.7,278.5z"/>
</svg>
