<?xml version="1.0" encoding="utf-8"?>
<!-- Generator: Adobe Illustrator 26.5.2, SVG Export Plug-In . SVG Version: 6.00 Build 0)  -->
<svg version="1.1" id="Capa_1" xmlns="http://www.w3.org/2000/svg" xmlns:xlink="http://www.w3.org/1999/xlink" x="0px" y="0px"
	 viewBox="0 0 323.4 323.4" style="enable-background:new 0 0 323.4 323.4;" xml:space="preserve">
<style type="text/css">
	.st0{fill:#FFFFFF;enable-background:new    ;}
</style>
<path class="st0" d="M260.5,164.4V159l-18.3-4.3c-0.2-2.4-0.5-4.8-1-7.1l16.6-8.9l-1.4-5.2l-18.8,0.6c-0.8-2.3-1.7-4.5-2.7-6.6
	l13.7-12.9l-2.7-4.7l-18,5.5c-1.4-2-2.8-3.9-4.4-5.7l9.9-16l-3.8-3.8l-16,9.9c-1.8-1.5-3.8-3-5.7-4.4l5.5-18l-4.7-2.7l-12.9,13.7
	c-2.2-1-4.4-1.9-6.6-2.7l0.6-18.8l-5.2-1.4l-8.9,16.6c-2.3-0.4-4.7-0.7-7.1-1l-4.3-18.3H159l-4.3,18.3c-2.4,0.2-4.8,0.5-7.1,1
	l-8.9-16.6l-5.2,1.4l0.6,18.8c-2.3,0.8-4.5,1.7-6.6,2.7l-12.9-13.7l-4.7,2.7l5.5,18c-2,1.4-3.9,2.8-5.7,4.4l-16-9.9l-3.8,3.8l9.9,16
	c-1.5,1.8-3,3.8-4.4,5.7l-18-5.5l-2.7,4.7l13.7,12.9c-1,2.2-1.9,4.4-2.7,6.6l-18.8-0.6l-1.4,5.2l16.6,8.9c-0.4,2.3-0.7,4.7-1,7.1
	L62.9,159v5.4l18.3,4.3c0.2,2.4,0.5,4.8,1,7.1l-16.6,8.9l1.4,5.2l18.8-0.6c0.8,2.3,1.7,4.5,2.7,6.6l-13.7,12.9l2.7,4.7l18-5.5
	c1.4,2,2.8,3.9,4.4,5.7l-9.9,16l3.8,3.8l16-9.9c1.8,1.5,3.8,3,5.7,4.4l-5.5,18l4.7,2.7l12.9-13.7c2.2,1,4.4,1.9,6.6,2.7l-0.6,18.8
	l5.2,1.4l8.9-16.6c2.3,0.4,4.7,0.7,7.1,1l4.3,18.3h5.4l4.3-18.3c2.4-0.2,4.8-0.5,7.1-1l8.9,16.6l5.2-1.4l-0.6-18.8
	c2.3-0.8,4.5-1.7,6.6-2.7l12.9,13.7l4.7-2.7l-5.5-18c2-1.4,3.9-2.8,5.7-4.4l16,9.9l3.8-3.8l-9.9-16c1.5-1.8,3-3.8,4.4-5.7l18,5.5
	l2.7-4.7l-13.7-12.9c1-2.2,1.9-4.4,2.7-6.6l18.8,0.6l1.4-5.2l-16.6-8.9c0.4-2.3,0.7-4.7,1-7.1L260.5,164.4z M215.6,161.7
	c0,29.8-24.1,53.9-53.9,53.9s-53.9-24.1-53.9-53.9s24.1-53.9,53.9-53.9S215.6,131.9,215.6,161.7z"/>
</svg>
