<svg id="Line" height="512" viewBox="0 0 64 64" width="512" xmlns="http://www.w3.org/2000/svg"><g><path d="m43.777 18.867h-23.555c-.552 0-1 .447-1 1s.448 1 1 1h23.555c.553 0 1-.447 1-1s-.447-1-1-1z"/><path d="m43.777 31.028h-23.555c-.552 0-1 .447-1 1s.448 1 1 1h23.555c.553 0 1-.447 1-1s-.447-1-1-1z"/><path d="m43.777 43.16h-23.555c-.552 0-1 .447-1 1s.448 1 1 1h23.555c.553 0 1-.447 1-1s-.447-1-1-1z"/><path d="m48.598 4.553h-33.195c-3.584 0-6.5 2.915-6.5 6.499v41.925c0 3.568 2.916 6.471 6.5 6.471h33.194c3.583 0 6.498-2.902 6.498-6.471v-41.925c.001-3.584-2.914-6.499-6.497-6.499zm4.498 48.424c0 2.465-2.018 4.471-4.498 4.471h-33.195c-2.481 0-4.5-2.006-4.5-4.471v-41.925c0-2.48 2.019-4.499 4.5-4.499h33.194c2.48 0 4.498 2.019 4.498 4.499v41.925z"/></g></svg>