<svg xmlns="http://www.w3.org/2000/svg" width="121.092" height="109.559" viewBox="0 0 121.092 109.559">
    <path data-name="Path 12" d="M127.914 80.842c-33.439 0-60.546 22.59-60.546 50.455 0 15.97 9.094 30.535 22.826 39.43a14.569 14.569 0 0 1 4.129 3.748 5.6 5.6 0 0 1 .4 4.991 18.9 18.9 0 0 1-2.949 5.068c-1.237 1.6-2.606 3.134-4.016 4.633a.747.747 0 0 0-.211.64.714.714 0 0 0 .827.582 50.876 50.876 0 0 0 14.274-4.371 29.935 29.935 0 0 0 7.552-5.118 2.883 2.883 0 0 1 2.621-.778 71.4 71.4 0 0 0 15.1 1.629 70.208 70.208 0 0 0 29.37-6.323c18.493-8.48 31.176-25.072 31.176-44.132-.007-27.864-27.114-50.454-60.553-50.454z" transform="translate(-67.368 -80.842)" style="fill:#3fbd2d"/>
    <path data-name="Path 13" d="M5.938-5.44a9.331 9.331 0 0 0 3.208 3.93 8.33 8.33 0 0 0 4.842 1.424 8.092 8.092 0 0 0 4.31-.949 3.015 3.015 0 0 0 1.5-2.7 3.376 3.376 0 0 0-.892-2.465 6.624 6.624 0 0 0-3.019-1.48L11.368-8.9Q2.71-11.212 2.71-17.933a8.252 8.252 0 0 1 1.443-4.842A9.2 9.2 0 0 1 8.1-25.946a13.829 13.829 0 0 1 5.62-1.1 12.662 12.662 0 0 1 7.369 2.146 12.279 12.279 0 0 1 4.481 5.373l-4.937 2.506a9.543 9.543 0 0 0-2.81-3.342 6.711 6.711 0 0 0-4.1-1.291 6.267 6.267 0 0 0-3.816.987A3.232 3.232 0 0 0 8.6-17.933a2.885 2.885 0 0 0 1.04 2.392 8.333 8.333 0 0 0 3.095 1.367l4.329 1.139a14.686 14.686 0 0 1 6.171 3.19 7.8 7.8 0 0 1 2.449 6.114 7.813 7.813 0 0 1-1.538 4.823 9.654 9.654 0 0 1-4.2 3.133 15.683 15.683 0 0 1-5.962 1.082A14.677 14.677 0 0 1 5.9 3.142 12.7 12.7 0 0 1 .925-2.934zM35.519 4.737h-5.848v-31.214h7.937l8.924 23.81 8.924-23.81h7.937V4.737h-5.849V-16.68L49.493 4.737H43.57L35.519-16.68zM72.012-5.44a9.331 9.331 0 0 0 3.209 3.93 8.33 8.33 0 0 0 4.841 1.424 8.092 8.092 0 0 0 4.31-.949 3.014 3.014 0 0 0 1.5-2.7A3.376 3.376 0 0 0 84.98-6.2a6.624 6.624 0 0 0-3.019-1.48L77.442-8.9q-8.658-2.316-8.658-9.038a8.252 8.252 0 0 1 1.443-4.842 9.2 9.2 0 0 1 3.949-3.171 13.829 13.829 0 0 1 5.62-1.1 12.662 12.662 0 0 1 7.367 2.151 12.279 12.279 0 0 1 4.481 5.373l-4.937 2.506a9.543 9.543 0 0 0-2.81-3.342 6.711 6.711 0 0 0-4.1-1.291 6.267 6.267 0 0 0-3.816.987 3.232 3.232 0 0 0-1.31 2.734 2.885 2.885 0 0 0 1.044 2.392 8.333 8.333 0 0 0 3.095 1.367l4.329 1.139a14.686 14.686 0 0 1 6.171 3.19 7.8 7.8 0 0 1 2.449 6.114 7.813 7.813 0 0 1-1.539 4.823 9.654 9.654 0 0 1-4.2 3.133 15.682 15.682 0 0 1-5.962 1.082 14.677 14.677 0 0 1-8.088-2.165A12.7 12.7 0 0 1 67-2.934z" transform="translate(14.075 62.654)" style="fill:#fff"/>
</svg>
