<svg xmlns="http://www.w3.org/2000/svg" width="117.667" height="107.855" viewBox="0 0 117.667 107.855">
    <path d="M79.393 78.313 76 87.876h6.771zm0 0L76 87.876h6.771zm12.44-40.723C59.347 37.59 33 58.214 33 83.662c0 16.463 11.007 30.893 27.577 39.044-8.226 28.187-13.061 30.026 20.806 6.311a74.424 74.424 0 0 0 10.451.727c32.487 0 58.833-20.634 58.833-46.083S124.32 37.59 91.833 37.59zM59.3 99.75c-5.873 0-2.407-8.119-3.391-23.245-2.139-.364-8.632 1.455-8.632-3.305a3.316 3.316 0 0 1 3.327-3.295c12.344.877 20.709-2.3 20.709 3.295 0 4.846-6.247 2.9-8.622 3.305-.98 15.073 2.475 23.245-3.391 23.245zm31.92-.513c-5.274 2.4-5.4-3.006-6.664-5.348H74.215c-1.273 2.4-1.38 7.787-6.664 5.348-3.969-1.818 2.492-11.05 7.317-26.015a4.749 4.749 0 0 1 9.039 0c4.921 15.254 11.307 24.2 7.317 26.015zm6.268 0c-5.68 0-2.225-7.67-3.209-25.994 0-4.461 6.932-4.45 6.932 0v19.832c3.273.439 10.462-1.615 10.462 3.091-.043 4.974-7.766 2.46-14.184 3.091zm31.385-.973-7.955-10.484-1.177 1.177v7.37a3.38 3.38 0 0 1-3.4 3.38c-5.894 0-2.364-8.493-3.391-26.443a3.391 3.391 0 0 1 3.391-3.37c5.124 0 2.91 7.242 3.391 10.622 9.627-9.189 9.381-10.162 11.36-10.162 2.728 0 4.4 3.391 2.578 5.188l-7.734 7.68 8.354 11c2.728 3.562-2.717 7.627-5.413 4.065zM76 87.876h6.771l-3.38-9.563zm3.391-9.563L76 87.876h6.771zm0 0L76 87.876h6.771z" transform="translate(-33 -37.59)" style="fill:#3e2723"/>
</svg>
